<?xml version="1.0" encoding="UTF-8"?>
<svg id="Layer_1" data-name="Layer 1" xmlns="http://www.w3.org/2000/svg" viewBox="0 0 543.25 651.62">
  <path d="M.49,281.33H5.83c86.66,0,173.32,.52,259.97-.23,40.85-.35,74.45,27.12,86.44,59.55,11.81,31.94,2.76,69.55-22.78,93.6-17.82,16.78-38.84,25.07-63.35,25.02-59.16-.12-118.32-.09-177.48,.07-4.54,.01-5.53-1.39-5.51-5.67,.15-41,.02-81.99,.19-122.99,.02-4.57-1.2-6.04-5.84-5.87-9.65,.35-19.33,.2-28.99,.05-3.26-.05-4.75,.66-4.75,4.38,.1,55.49,.12,110.99-.01,166.48-.01,4.47,2.43,4.2,5.39,4.2,50.83-.02,101.66,0,152.49-.02,24-.01,48.01,.37,71.99-.25,62.14-1.61,110.36-47.12,121.87-103.86,13.96-68.77-29.7-136.52-98.23-152.7-10.41-2.46-21.42-3.29-32.16-3.33-85.99-.26-171.98-.15-257.98-.15H.1c0-2.37,0-4.15,0-5.94C.1,157.86,.14,82.04,0,6.21,0,1.53,1.02-.01,5.97,0,81.46,.16,156.95-.04,232.45,.16c77.71,.21,143.51,53.98,158.84,130.04,6.8,33.75,3.02,66.69-11.09,98.19-2.32,5.17-1.68,7.74,2.62,11.51,29.27,25.63,48.22,57.49,55.62,95.83,17.51,90.71-36.17,177.86-124.8,201.71-14.14,3.81-29.19,5.84-43.84,5.93-88.32,.54-176.65,.28-264.97,.27-1.32,0-2.64-.12-4.34-.2V281.33Zm339.7-70.41c.34-.6,.82-1.27,1.13-2.01,9.64-22.96,12.21-46.85,6.73-70.99-12.67-55.85-58.88-93.6-115.73-94.16-61.31-.61-122.62-.12-183.93-.21-3.4,0-4.66,.9-4.65,4.49,.1,47.82,.09,95.63,.01,143.45,0,3.24,1.01,4.38,4.29,4.32,9.83-.16,19.67-.31,29.48,.05,4.72,.18,5.81-1.43,5.79-5.91-.17-32.99-.1-65.98-.08-98.96,0-2.07,.24-4.14,.38-6.24,1.44-.12,2.26-.24,3.08-.24,48.65,0,97.3-.05,145.95,.05,10.77,.02,21.07,2.4,30.93,6.97,33.28,15.46,51.28,49.39,44.87,85.75-1.31,7.42-4.09,14.58-6.13,21.65,12.42,3.93,25.04,7.93,37.88,11.99ZM126.82,415.09c.79,.19,1.26,.41,1.73,.41,47.3,0,94.62,.62,141.91-.24,31.21-.57,51.26-32.18,40.37-61.43-6.56-17.64-23.82-28.86-44.87-28.89-44.47-.07-88.94-.02-133.42-.02-1.8,0-3.59,0-5.73,0v90.17Zm-.04-219.7c1.3,.17,1.95,.33,2.59,.33,36.65,.02,73.29,.06,109.94-.05,2.38,0,4.92-.89,7.1-1.94,14.53-7,22.21-23.51,18.7-39.83-3.26-15.12-17.29-26.33-33.43-26.37-33.32-.09-66.63-.03-99.95-.02-1.61,0-3.21,.14-4.96,.22v67.66Z"/>
  <path d="M542.96,377.56c.76,9.26,.53,9.69-6.81,13.3-12.82,6.31-25.64,12.61-38.45,20.16,13.59,1.71,27.19,3.42,41.17,5.18-.42,3.63-.77,6.7-1.2,10.48-20.97-2.55-41.51-5.04-61.95-7.52-1.26-7.88-.39-9.72,5.98-12.87,11.79-5.83,23.58-11.64,35.37-17.48,1.42-.7,2.8-1.5,5.46-2.94-15.01-1.9-28.59-3.61-42.76-5.4,.3-3.36,.58-6.43,.94-10.41,20.91,2.52,41.45,4.99,62.26,7.5Z"/>
  <path d="M481.65,482.03c4.56,0,8.52-.75,12.06,.14,12.02,3.01,17.34,14.33,11.87,25.88-3.75,7.92-8.68,15.29-13.43,23.51-18.3-11.01-36.17-21.75-54.44-32.74,3.96-6.59,7.5-12.77,11.33-18.77,4.05-6.35,8.85-12.16,17.39-11.33,8.11,.79,13.38,5.49,15.23,13.31Zm8.08,35.66c2.71-4.76,5.36-8.77,7.34-13.09,2.08-4.54,.33-8.85-4.08-11.45-3.96-2.34-8.12-2.85-11.19,1.08-3.2,4.1-5.72,8.73-8.7,13.4,5.76,3.49,10.82,6.55,16.63,10.07Zm-38.72-23.39c5.13,3.12,9.59,5.82,14.47,8.79,2.54-4.64,5.03-8.42,6.72-12.53,1.73-4.2,.38-7.9-3.78-10.17-4.05-2.21-7.53-1.05-10.08,2.47-2.53,3.48-4.67,7.25-7.33,11.44Z"/>
  <path d="M197.76,578.82c7.51,1.62,15.52,3.05,23.36,5.15,6.32,1.69,11.92,4.98,13.45,12.02,1.58,7.27-.43,13.52-6.78,17.99-.38,.27-.61,.77,.57,1.03,.72,5.58,2.55,11.29,1.9,16.7-1.08,8.91-7.72,14.47-16.7,13.91-9.07-.56-18.05-2.7-27.03-4.39-.87-.16-2.19-2.22-2-3.13,3.99-19.56,8.17-39.07,12.33-58.6,.03-.12,.25-.2,.9-.68Zm-1.63,55.26c5.54,.98,10.22,2.19,14.97,2.54,5.06,.37,8.32-2.8,9.22-7.92,.93-5.28-.99-8.89-6.05-10.48-3.63-1.14-7.4-1.96-11.17-2.47-1.1-.15-3.22,1.07-3.48,2.03-1.36,5.1-2.27,10.32-3.5,16.3Zm5.76-27.92c4.87,.91,9.04,2.02,13.28,2.41,4.88,.45,8.18-2.31,8.96-6.75,.84-4.79-1.57-7.71-5.81-9.09-3.3-1.07-6.75-1.8-10.2-2.18-1.07-.12-3.07,1.18-3.36,2.2-1.17,4.12-1.85,8.37-2.87,13.41Z"/>
  <path d="M292.28,623.08c5.16,7.97,10.27,15.86,15.46,23.86-8.12,3.37-10.59,2.63-14.66-3.78-2.32-3.65-4.64-7.31-6.97-10.96-4.87-7.64-6.56-8.21-16.42-5.17,.51,7.57,1.03,15.3,1.59,23.6-3.59,.34-6.79,.64-10.45,.99-.28-3.55-.52-6.49-.74-9.44-1.19-16.11-2.2-32.23-3.66-48.31-.44-4.8,1.27-6.11,5.66-6.18,5.82-.1,11.62-.86,17.44-1.01,10.64-.28,17.8,3.85,20.67,11.61,3.32,8.97,1.11,16.23-7.1,23.42-.23,.2-.34,.55-.81,1.36Zm-24.22-17.45c.87,12.31,2.03,13.14,14.3,10.25,.81-.19,1.63-.36,2.39-.68,3.89-1.63,6.02-4.49,6.1-8.8,.13-6.69-3.83-10.92-10.98-10.46-15.07,.96-12.15-.95-11.81,9.68Z"/>
  <path d="M511.93,306.08c.6,3.21,.86,5.88,1.62,8.38,1.24,4.09,.34,6.41-4.31,6.45-.97,0-1.93,.3-3.6,.57-1.55-7.91-3.06-15.64-4.72-24.12,7.85-1.45,15.33-3.92,22.75-3.72,3.6,.1,8.36,4.48,10.39,8.14,9.82,17.75,4.71,36.84-16.11,42.34-7.86,2.08-16.49,2.82-24.57,2.05-11.72-1.12-18.83-11.24-19.43-24.82-.46-10.45,5.5-18.39,16.26-21.64,3.39,6.86,3.13,8.32-2.65,12.76-4.12,3.17-4.73,7.37-3.94,12.1,.86,5.14,3.26,9.51,8.47,10.73,11.55,2.7,22.68,.91,32.25-6.18,6.69-4.96,7.01-16.85,1.3-22.98-.96-1.03-2.84-1.76-4.25-1.68-2.94,.17-5.85,.96-9.46,1.63Z"/>
  <path d="M475.94,277.69c-12.4-.23-20-4.98-24.49-14.52-4.41-9.39-3.36-18.4,3.35-26.13,8.02-9.24,18.46-14.88,30.61-16.33,9.91-1.18,17.9,2.86,23.15,11.62,5.4,9.02,5.65,18.29-.49,26.8-8.26,11.44-20.26,16.76-32.13,18.56Zm-1.04-10.16c8.84-2.16,18.44-6.1,25.21-14.8,3.57-4.59,3.66-9.85,.71-15.01-2.84-4.97-7.25-7.72-12.81-6.97-10.39,1.4-19.33,6.15-26.27,14.04-3.87,4.4-4.18,9.64-1.44,14.93,2.72,5.25,7.11,7.72,14.61,7.81Z"/>
  <path d="M377.89,606.67c.18,13.5-5.37,21.94-15.61,25.97-10.25,4.03-21.08,1.72-28.03-6.98-8.02-10.04-12.74-21.57-11-34.73,1.27-9.6,7.07-15.96,16.16-19.19,9.33-3.32,17.89-1.7,24.97,5.19,8.91,8.68,12.13,19.98,13.5,29.75Zm-10.13,2.67c-1.17-8.41-3.88-17.43-10.26-24.87-3.78-4.41-8.8-5.8-14.48-3.98-5.63,1.81-9.29,5.68-9.61,11.51-.62,11.13,3.14,21,10.77,29.06,4.16,4.39,9.69,4.91,15.26,2.52,5.69-2.44,8.11-7.07,8.33-14.25Z"/>
  <path d="M400.93,591.5c2.79-2.12,5.25-4,7.64-5.81,7.92,6.47,13.02,6.04,21.65-2.01,2.84-2.65,4.03-6.13,1.95-9.98-2.08-3.83-5.51-4.7-9.39-3.8-3.39,.79-6.64,2.16-10.01,3.08-3.68,1-7.38,2.19-11.15,2.57-13.04,1.32-21.57-9.54-17.42-21.88,5.56-16.51,26.72-22.46,37.94-10.67,.45,.47,.78,1.06,1.54,2.11-1.84,1.44-3.44,3.21-5.44,4.07-1.39,.6-3.77,.57-4.94-.26-6.89-4.89-17.97-.84-19.82,7.47-1.15,5.16,2.29,9.6,7.58,9.1,3.42-.32,6.72-1.76,10.1-2.56,5.15-1.22,10.3-3.15,15.5-3.32,12.35-.41,20.51,12.3,15.05,23.36-5.1,10.35-13.87,15.97-25.43,16.69-6.24,.39-11.27-2.25-15.35-8.15Z"/>
  <path d="M528.42,458.1c-1.28,3.55-2.33,6.46-3.6,9.98-19.89-7.06-39.39-13.98-58.8-20.87-.1-.87-.3-1.38-.19-1.81q2.27-8.73,10.75-5.76c17.05,6.05,34.09,12.13,51.84,18.46Z"/>
</svg>