<svg id="logosandtypes_com" data-name="logosandtypes com" xmlns="http://www.w3.org/2000/svg" viewBox="0 0 150 150"><defs><style>.cls-1{fill:none;}.cls-2{fill:#3db767;}</style></defs><path class="cls-1" d="M0,0H150V150H0Z" transform="translate(0 0)"/><path class="cls-2" d="M116.23,97.24C105.81,131.47,73.06,129,68.6,128.49c0,0-39.69-3-48.62,6.45,10.42-34.23,43.16-31.75,47.63-31.25C67.61,103.69,107.3,106.67,116.23,97.24Z" transform="translate(0 0)"/><path class="cls-2" d="M82,34.73c3,.5,18.86,1.49,32.25-8.43h0c6.45-5,11.91-11.91,15.38-22.83C120.69,12.9,81,9.92,81,9.92c-16.87-1-27.28,5.46-27.28,5.46A36.14,36.14,0,0,0,42.8,24.31,42.32,42.32,0,0,0,31.89,53.09c.49,22.82,18.85,41.67,41.67,41.67,23.32,0,42.67-18.85,42.67-42.17a46.66,46.66,0,0,0-2.49-14.88c-8.93,5.45-18.85,6.45-23.81,6.45,1.49,3,2.48,6,2,9.42A18.15,18.15,0,0,1,75.05,70.45,17.59,17.59,0,0,1,56.69,52.59,18,18,0,0,1,74.06,34.73Z" transform="translate(0 0)"/></svg>