<?xml version="1.0" encoding="utf-8"?>
<!-- Generator: Adobe Illustrator 26.4.1, SVG Export Plug-In . SVG Version: 6.00 Build 0)  -->
<svg version="1.1" id="Layer_1" xmlns="http://www.w3.org/2000/svg" xmlns:xlink="http://www.w3.org/1999/xlink" x="0px" y="0px"
	 viewBox="0 0 624.32 197.31" style="enable-background:new 0 0 624.32 197.31;" xml:space="preserve">
<style type="text/css">
	.st0{fill:#FCB303;}
</style>
<g>
	<path class="st0" d="M314.64,68.73c24.37-17.76,55.57-14.04,74.73,0.01c16.55,12.14,25.85,27.98,27.87,48.41
		c2.8,28.33-7.42,56.69-35.03,72.87c-19.99,11.71-52.23,9.88-68.93-9.77c-1.05,2.15-0.47,4.27-0.58,6.27
		c-0.29,5.21-2.07,7.36-7.22,7.54c-7.82,0.27-15.65,0.33-23.47,0.18c-6.03-0.11-6.76-1.01-6.77-7.26
		c-0.03-33.64-0.02-67.28-0.01-100.92c0.01-21.82,0.01-43.63,0.05-65.45c0.01-7.06,1.5-8.54,8.42-8.57c7.49-0.03,14.99-0.01,22.48,0
		c7.45,0,8.4,0.89,8.42,8.15c0.03,14.99,0.02,29.98,0.03,44.97C314.64,66.27,314.64,67.37,314.64,68.73z M311.52,125.98
		c0.17,12.66,3.87,23.05,13.54,30.46c14.95,11.45,36.22,8.26,47.34-6.78c11.78-15.94,9.14-40.78-5.81-51.57
		c-11.55-8.33-24.29-9.84-37.1-3.43C316.52,101.14,311.93,112.9,311.52,125.98z"/>
	<path class="st0" d="M499.34,57.08c36.11-4.25,71.44,28.58,71.15,69.19c-0.3,42.52-35.52,71.4-72.46,71.04
		c-38.82-0.38-69.69-33.46-70.01-70.02C427.66,85.34,464.52,52.57,499.34,57.08z M531.84,126.01c-0.07-1.51-0.11-3.51-0.28-5.5
		c-1.15-13.55-10.89-25.06-24.06-28.49c-12.94-3.36-26.49,1.59-33.81,12.35c-8.47,12.45-8.22,32.59,0.79,44.65
		c5.73,7.66,13.32,12.66,23.08,12.97C517.97,162.65,531.95,147.98,531.84,126.01z"/>
	<path class="st0" d="M624.25,106.1c0,26.81-0.01,53.63,0,80.44c0,9.23-1.38,10.73-10.51,10.77c-7.16,0.03-14.32-0.2-21.48-0.12
		c-4.48,0.05-6.28-2.35-6.63-6.37c-0.12-1.32-0.06-2.66-0.06-4c0-54.29,0-108.59,0.01-162.88c0-7.89,1.06-8.93,8.88-8.92
		c6.99,0.01,13.99-0.03,20.98,0.02c6.61,0.05,8.87,2.41,8.87,9.12c0,27.31,0,54.63,0,81.94C624.29,106.1,624.27,106.1,624.25,106.1z
		"/>
	<g>
		<g>
			<path class="st0" d="M90.63,182.44c-1.34,0-2.57-0.21-3.7-0.64c-1.13-0.43-2.11-1.04-2.93-1.83c-0.82-0.79-1.46-1.72-1.92-2.78
				c-0.46-1.06-0.69-2.23-0.69-3.51s0.23-2.44,0.69-3.51c0.46-1.06,1.11-1.99,1.95-2.78c0.84-0.79,1.82-1.4,2.95-1.83
				s2.37-0.64,3.73-0.64c1.5,0,2.85,0.25,4.05,0.75c1.2,0.5,2.21,1.23,3.04,2.18l-2.49,2.32c-0.63-0.66-1.31-1.15-2.03-1.46
				c-0.73-0.31-1.52-0.47-2.4-0.47c-0.81,0-1.55,0.13-2.23,0.4c-0.68,0.27-1.26,0.64-1.75,1.12c-0.49,0.48-0.87,1.06-1.14,1.72
				c-0.27,0.66-0.4,1.4-0.4,2.2c0,0.77,0.13,1.5,0.4,2.17c0.27,0.67,0.64,1.25,1.14,1.73c0.49,0.48,1.07,0.86,1.74,1.14
				s1.41,0.41,2.21,0.41c0.77,0,1.53-0.13,2.26-0.39c0.73-0.26,1.45-0.69,2.14-1.28l2.23,2.83c-0.94,0.71-2.01,1.25-3.22,1.61
				C93.05,182.26,91.84,182.44,90.63,182.44z M93.89,179.78v-6.36h3.58v6.87L93.89,179.78z"/>
			<path class="st0" d="M98.88,182.15l7.52-16.94h3.87l7.6,16.94h-4.11l-6.22-14.95h1.57l-6.22,14.95H98.88z M102.68,178.52
				l0.99-2.98h8.76l1.02,2.98H102.68z"/>
			<path class="st0" d="M119.64,182.15v-16.94h3.24l7.21,11.95h-1.72l7.06-11.95h3.27v16.94h-3.65l-0.05-11.3h0.73l-5.71,9.48h-1.74
				l-5.78-9.48h0.8v11.3H119.64z"/>
			<path class="st0" d="M146.64,179.01h9.22v3.15h-13.11v-16.94h12.8v3.14h-8.9V179.01z M146.35,172.02h8.15v3.07h-8.15V172.02z"/>
			<path class="st0" d="M164.56,182.44c-1.35,0-2.66-0.18-3.91-0.54c-1.25-0.36-2.25-0.83-3.01-1.42l1.33-2.95
				c0.71,0.52,1.56,0.94,2.56,1.27c1,0.33,2.01,0.5,3.02,0.5c0.77,0,1.4-0.08,1.88-0.24s0.83-0.38,1.05-0.64
				c0.23-0.27,0.34-0.58,0.34-0.93c0-0.45-0.18-0.81-0.53-1.08c-0.36-0.27-0.83-0.48-1.42-0.65c-0.59-0.17-1.23-0.33-1.92-0.48
				s-1.39-0.34-2.09-0.56c-0.7-0.22-1.35-0.51-1.94-0.87c-0.59-0.36-1.06-0.84-1.4-1.43s-0.52-1.33-0.52-2.21
				c0-0.97,0.26-1.85,0.77-2.65c0.52-0.8,1.3-1.43,2.36-1.91c1.06-0.48,2.38-0.71,3.98-0.71c1.06,0,2.12,0.13,3.16,0.39
				c1.04,0.26,1.95,0.63,2.72,1.11l-1.23,2.95c-0.76-0.44-1.54-0.76-2.35-0.98c-0.81-0.22-1.58-0.33-2.32-0.33
				c-0.77,0-1.39,0.08-1.86,0.25c-0.47,0.17-0.81,0.4-1.03,0.69c-0.22,0.29-0.33,0.61-0.33,0.97c0,0.45,0.18,0.81,0.53,1.09
				s0.82,0.49,1.4,0.64c0.58,0.15,1.23,0.31,1.94,0.46c0.71,0.15,1.41,0.34,2.11,0.57c0.69,0.23,1.33,0.51,1.91,0.86
				c0.58,0.35,1.05,0.81,1.42,1.4c0.36,0.59,0.54,1.32,0.54,2.19c0,0.95-0.26,1.82-0.79,2.61c-0.52,0.79-1.32,1.43-2.38,1.91
				C167.49,182.2,166.16,182.44,164.56,182.44z"/>
		</g>
	</g>
	<path class="st0" d="M256.9,156.46c-2.78-19.92-5.91-39.78-9.25-59.61c-5.06-30-28.55-51.58-60.28-51.33
		c-14.4,0.11-28.81,0.02-43.21,0.03c-5.34,0-5.39-0.01-4.29-5.13c2.71-12.53,10.05-20.63,22.74-23.51c1.91-0.43,3.89-0.46,5.72-1.33
		c3.67-1.74,6-6.08,5.13-9.71c-0.9-3.76-3.96-5.92-8.41-5.87c-6.36,0.07-12.23,2.14-17.64,5.17c-14.76,8.27-22.2,21.54-24.63,37.85
		c-0.36,2.39-1.22,2.56-3.12,2.55c-8.78-0.07-17.56-0.03-27.79-0.03c-8.89,0.41-19.25-0.6-29.58,0.6
		C39.44,48.8,23.65,60.95,14.33,81.75c-4.66,10.41-5.77,21.71-7.65,32.77c-2.39,14.01-4.5,28.08-6.3,42.18
		c-1.34,10.52,0.79,20.3,7.74,28.78c13.13,16.03,41.59,15.91,55.37-1.9c4.76-6.15,9.32-12.46,13.63-18.92
		c4.55-6.81,10.63-10.03,18.82-9.98c22.1,0.11,44.2-0.07,66.3,0.07c6.89,0.05,12.75,2.55,16.9,8.56c4.53,6.56,9.33,12.94,14.14,19.3
		c11.51,15.23,30.26,18.38,46.14,10.62C251.98,187.09,259.05,171.89,256.9,156.46z M95.4,107.95c-0.04,3.95-1.78,5.69-5.83,5.74
		c-3.95,0.05-7.9,0.11-11.84-0.02c-1.86-0.06-2.57,0.39-2.49,2.41c0.17,3.94,0.09,7.89,0.04,11.84c-0.05,3.54-1.6,5.28-5.14,5.52
		c-2.45,0.17-4.93,0.14-7.39-0.02c-3.51-0.23-5.08-1.92-5.17-5.53c-0.1-3.94-0.15-7.9,0.02-11.84c0.09-2.04-0.65-2.45-2.49-2.38
		c-3.84,0.13-7.7,0.07-11.54,0.03c-3.92-0.03-5.54-1.66-5.58-5.56c-0.02-2.27-0.03-4.54,0-6.81c0.06-3.75,1.44-5.43,5.31-5.67
		c4.03-0.25,8.1-0.28,12.12,0.01c2.07,0.15,2.21-0.54,2.17-2.18c-0.09-3.75-0.08-7.5-0.02-11.25c0.06-4.1,1.55-5.8,5.57-6.14
		c2.74-0.23,5.52-0.34,8.26,0.25c2.42,0.52,3.77,2.06,3.86,4.53c0.08,2.27,0.02,4.54,0.02,6.81c0.08,0,0.15,0,0.23,0
		c0,2.65,0,5.3,0,7.95c2.53-0.04,5.07-0.14,7.6-0.1c2.75,0.05,5.51-0.23,8.26,0.31c2.64,0.51,3.92,2.12,4.01,4.68
		C95.47,103.02,95.43,105.49,95.4,107.95z M194.36,72.89c5.86,0.19,10.61,5.21,10.45,11.04c-0.16,5.95-5.03,10.6-10.95,10.46
		c-6.17-0.14-10.79-5.02-10.54-11.12C183.56,77.34,188.5,72.7,194.36,72.89z M141.3,119.67h-12.5h-12.61c-5.1,0-8.1-5.73-5.2-9.92
		l6.33-9.14l6.22-9.1c2.52-3.69,7.98-3.67,10.47,0.04l6.85,10.19l5.62,7.97C149.42,113.89,146.43,119.67,141.3,119.67z
		 M172.8,114.97c-6.16,0-10.67-4.42-10.73-10.53c-0.07-6.35,4.6-11.05,10.94-11c6,0.04,10.59,4.67,10.62,10.7
		C183.65,110.25,178.94,114.97,172.8,114.97z M193.05,136.23c-5.94-0.02-10.66-4.82-10.55-10.71c0.12-6.14,4.82-10.69,10.99-10.63
		c5.83,0.06,10.3,4.65,10.3,10.57C203.79,131.71,199.25,136.25,193.05,136.23z M214.23,115.62c-6.38,0.25-11.02-5.71-11.02-10.31
		c0-6.35,4.59-11.13,10.82-11.14c6,0,10.56,4.57,10.6,10.63C224.67,110.98,220.29,115.38,214.23,115.62z"/>
</g>
</svg>
