<?xml version="1.0" encoding="utf-8"?>
<!-- Generator: Adobe Illustrator 26.4.1, SVG Export Plug-In . SVG Version: 6.00 Build 0)  -->
<svg version="1.1" id="Layer_1" xmlns="http://www.w3.org/2000/svg" xmlns:xlink="http://www.w3.org/1999/xlink" x="0px" y="0px"
	 viewBox="0 0 1500.91 1080" style="enable-background:new 0 0 1500.91 1080;" xml:space="preserve">
<style type="text/css">
	.st0{fill:#018ED0;}
	.st1{fill:url(#SVGID_1_);}
	.st2{fill:url(#SVGID_00000148635239304926918810000014545007315371783810_);}
	.st3{fill:url(#SVGID_00000056420492212330000910000009106803594502448802_);}
	.st4{fill:url(#SVGID_00000018931559404149487650000005767090232523431048_);}
	.st5{fill:url(#SVGID_00000065768343171921875260000014975989569765449907_);}
	.st6{fill:url(#SVGID_00000003810820972179839530000009090126866261080744_);}
	.st7{fill:url(#SVGID_00000056393968138582551480000003001895778079557251_);}
	.st8{fill:url(#SVGID_00000119100472813531820030000013579119186789736374_);}
	.st9{fill:url(#SVGID_00000001633237142329365570000013775131382391670661_);}
	.st10{fill:url(#SVGID_00000082360037423982680230000006259867832788175761_);}
	.st11{fill:url(#SVGID_00000050640703256261101850000004788677758296005538_);}
	.st12{fill:url(#SVGID_00000055686004895321918640000006750681156887502003_);}
	.st13{fill:url(#SVGID_00000122688586075475769710000007149133130782064817_);}
	.st14{fill:url(#SVGID_00000127725612950908695890000001550561950624134786_);}
	.st15{fill:url(#SVGID_00000170960396165229993100000001015537776868112285_);}
	.st16{fill:url(#SVGID_00000162323827728067395670000004835276325274481794_);}
	.st17{fill:url(#SVGID_00000014629787000931133170000011484185515899853736_);}
	.st18{fill:url(#SVGID_00000121237344493055026710000011341527238960640131_);}
	.st19{fill:url(#SVGID_00000153682135526373418960000006332776614604062868_);}
	.st20{fill:url(#SVGID_00000001643986499449512160000016701471933724322210_);}
	.st21{fill:url(#SVGID_00000082363223542416219310000000637163985027697340_);}
	.st22{fill:url(#SVGID_00000155120165730689687730000000485712238629122472_);}
	.st23{fill:url(#SVGID_00000064313148921220802430000004859526108940672153_);}
	.st24{fill:url(#SVGID_00000003083937696055658910000005112660010927547803_);}
	.st25{fill:url(#SVGID_00000091721599400507970240000011760747496019621265_);}
	.st26{fill:url(#SVGID_00000099664155817343536500000007241923424054906531_);}
	.st27{fill:url(#SVGID_00000180365428142437943700000011362062389810634417_);}
</style>
<g>
	<g>
		<path class="st0" d="M1163.79,379.87c0-0.32,0-0.63,0-0.95c53.49,0,106.97-0.01,160.46,0.01c6.03,0,11.96-0.69,17.85-1.95
			c49.79-10.66,79.7-60.58,66.08-109.54c-13.68-49.18-61.42-74.44-105.57-64.18c-2.58,0.6-3.33-0.07-4-2.38
			c-1.45-4.96-2.92-9.95-4.9-14.71c-14.18-34.14-36.49-60.5-72.3-73.05c-23.72-8.31-48.26-9.34-73.01-5.56
			c-27.29,4.18-51.72,14.63-71.63,34.12c-24.78,24.25-38.13,53.96-40.67,88.51c-0.19,2.54-0.7,3.35-3.43,2.93
			c-12.64-1.97-24.89,0.17-36.81,4.33c-37.33,13.02-61.36,50.18-56.51,86.74c4.14,31.24,30.93,55.67,62.53,55.67
			C1055.85,379.86,1109.82,379.87,1163.79,379.87z"/>
		<path class="st0" d="M810.67,379.87c24.69-0.01,47.79-9.46,65.08-26.61c17.31-17.16,26.82-40.07,26.79-64.52
			c-0.03-24.24-9.49-46.95-26.65-63.96c-17.14-16.99-40.01-26.35-64.4-26.35h0l-0.14,0c-50.06,0.08-90.81,40.49-90.84,90.09
			c-0.01,24.54,9.3,47.51,26.23,64.68C763.7,370.4,786.4,379.87,810.67,379.87z M772.41,248.49c10.48-10.63,24.01-16.54,38.1-16.62
			l0.33,0c30.72,0,55.96,25.69,56.24,57.28c0.14,15.25-5.66,29.6-16.33,40.42c-10.54,10.69-24.57,16.62-39.51,16.69l-0.3,0
			c-31.24,0-55.01-24.57-55.29-57.14C755.53,274.23,761.64,259.42,772.41,248.49z"/>
		<path class="st0" d="M788.43,328.6h29.87c4.36,0,8.34-0.97,11.95-2.9c3.61-1.93,6.48-4.53,8.62-7.78
			c2.14-3.25,3.21-6.87,3.21-10.85c0-1.77-0.11-3.75-0.34-5.95c-0.23-2.2-0.7-4.38-1.44-6.54c-0.73-2.16-1.83-4.07-3.3-5.72
			c-0.52-0.59-1.11-1.11-1.76-1.56c-1.46-1.01-1.7-3.14-0.49-4.44c0.95-1.01,1.66-2.2,2.14-3.55c0.98-2.76,1.47-5.38,1.47-7.86
			c0-4.4-1.02-8.23-3.07-11.5c-2.05-3.27-4.82-5.79-8.31-7.58c-3.49-1.78-7.4-2.68-11.72-2.68h-26.83c-1.68,0-3.04,1.36-3.04,3.04
			v72.81C785.39,327.24,786.75,328.6,788.43,328.6z M802.3,267.18c0-1.68,1.36-3.04,3.04-3.04h7.89c2.25,0,4.19,0.62,5.8,1.86
			c1.61,1.24,2.42,3.02,2.42,5.35c0,2.29-0.81,4.19-2.42,5.69c-1.62,1.5-3.55,2.25-5.8,2.25h-7.89c-1.68,0-3.04-1.36-3.04-3.04
			V267.18z M802.3,296.42c0-1.68,1.36-3.04,3.04-3.04h11.16c2.93,0,5.43,1.05,7.49,3.16c2.07,2.1,3.1,4.45,3.1,7.04
			c0,3.08-1.03,5.64-3.1,7.66c-2.07,2.03-4.56,3.04-7.49,3.04h-11.16c-1.68,0-3.04-1.36-3.04-3.04V296.42z"/>
		<path class="st0" d="M480.99,379.84c0,0,0.04,0.03,0.04,0.03c0-0.01,0-0.01,0-0.02C481.01,379.85,481,379.84,480.99,379.84z"/>
		<path class="st0" d="M478.86,379.83c0,0,0.05,0.04,0.05,0.04c0-0.01,0-0.02,0-0.03C478.89,379.84,478.88,379.83,478.86,379.83z"/>
		<path class="st0" d="M492.26,219.26c-0.86,0.52-1.65,1.08-1.56,2.26c1.36,1.47,0.85,3.29,0.85,4.97
			c0.03,26.19,0.04,52.38-0.02,78.57c0,1.76,0.85,3.91-1.38,5.14c-2.47,0.47-3.2-1.47-4.29-3.02c-5.69-8.05-11.43-16.07-17.15-24.1
			c-0.33-0.41-0.66-0.82-0.99-1.23c-3.68-2-5.42-5.34-6.37-9.25c-1.9-1.39-4.61-2.24-3.66-5.53c0,0-0.07-0.11-0.07-0.11
			c-1.39,0.18-1.46-0.74-1.45-1.72c-0.59-0.22-0.9-0.63-0.83-1.29c0,0,0.09,0.01,0.09,0.01c-2.58-0.31-2.99-2.13-2.97-4.26
			c0,0-0.03-0.2-0.03-0.2c-1.52,0.3-1.46-0.67-1.38-1.65c-1.03-0.24-1.22-1.03-1.23-1.95c-3.23-1.39-4.6-4.09-5.18-7.35
			c-1.57-0.13-2.4-0.72-1.46-2.41c0,0-0.18-0.23-0.18-0.23c-2.47,0-2.21-2.02-2.62-3.55c0,0-0.01-0.02-0.01-0.02
			c-0.31-0.38-0.61-0.76-0.92-1.15c-2.27,0.04-2.23-1.51-2.13-3.11c-1.58-0.12-2.39-0.72-1.47-2.4c0,0-0.17-0.25-0.17-0.25
			c-3.8-1.25-4.89-4.46-5.69-7.88c-0.23-0.34-0.46-0.67-0.68-1.01c-1.79-0.3-2.51-1.41-2.4-3.15c0,0,0.05,0.06,0.05,0.06
			c-0.32-0.42-0.63-0.84-0.95-1.26c-4.02-2.73-8.53-2.89-13.22-2.91c-8.64-0.03-17.3,0.68-25.92-0.42c0,0-0.29,0.01-0.29,0.01
			c-0.18,3.1-0.5,6.2-0.51,9.31c-0.06,50.37-0.08,100.74-0.11,151.1c12.31,0.08,24.61,0.15,36.92,0.23c0,0,0.05,0,0.05,0
			c1.38-9.49,0.62-19.03,0.68-28.55c0.12-18.76,0.01-37.52,0.07-56.28c0.01-1.79-0.8-3.89,1.23-5.26c5.39,1.44,6.55,6.78,9.26,10.5
			c13.37,18.34,26.39,36.95,39.53,55.46c0.24-0.13,0.47-0.26,0.71-0.39c0.01,0.51,0.02,1.02,0.03,1.53h0c0,0,0,0,0,0
			c0,0.01,0,0.03,0,0.04c0,0,0.08,0,0.16-0.01c0.62,0.09,0.93,0.4,0.65,1.12c0,0,0.08,0.27,0.08,0.27c2.32-0.26,2.05,1.45,2.18,2.86
			c0,0-0.07,0.08-0.07,0.08c1.4-0.18,1.46,0.74,1.45,1.72c2.28-0.05,2.23,1.52,2.12,3.12c2.69,0.85,4.33,2.4,3.59,5.51
			c0,0,0.15,0.21,0.15,0.21c2.95-0.3,2.45,1.88,2.59,3.6c0.33,0.4,0.66,0.79,0.99,1.19c0,0-0.08-0.08-0.08-0.08
			c0.34,0.38,0.69,0.77,1.03,1.15c1.47-0.17,2.19,0.5,2.19,1.98c11.97,0.2,23.96-0.81,35.91,0.55c0,0,0.22-0.19,0.22-0.19
			c0.17-2.93,0.49-5.86,0.5-8.79c0.03-47.98,0.02-95.95,0.04-143.93c0-2.24,0.29-4.48,0.44-6.73c0,0-0.05-0.23-0.05-0.23
			C516.47,218.62,504.35,219.89,492.26,219.26z"/>
		<path class="st0" d="M467.83,236.7c0,0-0.13-0.09-0.13-0.09c0.01,0.01,0.01,0.02,0.02,0.03
			C467.76,236.66,467.79,236.68,467.83,236.7z"/>
		<path class="st0" d="M385.97,334.11c0,0-0.01,0-0.01,0c0,0,0.01,0.01,0.01,0.01C385.97,334.12,385.97,334.11,385.97,334.11z"/>
		<path class="st0" d="M439.5,196.01c0,0-0.08-0.06-0.08-0.06c0.01,0.02,0.03,0.04,0.04,0.05
			C439.48,196.01,439.49,196.01,439.5,196.01z"/>
		<polygon class="st0" points="449.84,210.71 449.83,210.69 449.83,210.7 		"/>
		<path class="st0" d="M426.11,177.07c0,0-0.11-0.08-0.11-0.08c0.01,0.01,0.01,0.02,0.02,0.02
			C426.05,177.04,426.08,177.05,426.11,177.07z"/>
		<path class="st0" d="M456.22,220.06c0,0-0.04-0.06-0.04-0.06c0,0.01,0,0.02,0,0.03C456.2,220.04,456.2,220.06,456.22,220.06z"/>
		<path class="st0" d="M461.39,227.41c0,0-0.04-0.05-0.04-0.05c0,0.01,0.01,0.02,0.01,0.03
			C461.37,227.4,461.38,227.41,461.39,227.41z"/>
		<path class="st0" d="M451.06,212.59c0,0.02,0,0.04,0,0.06c0.03,0.01,0.05,0.03,0.08,0.03
			C451.14,212.68,451.06,212.58,451.06,212.59z"/>
		<path class="st0" d="M444.68,203.36c0,0-0.04-0.04-0.04-0.04c0,0.01,0,0.02,0.01,0.03C444.66,203.35,444.67,203.36,444.68,203.36z
			"/>
		<path class="st0" d="M437.34,192.88c0,0.01,0,0.02,0,0.02c0.01,0,0.02,0,0.03,0.01C437.37,192.9,437.34,192.88,437.34,192.88z"/>
		<path class="st0" d="M589.92,369.47c17.93,10.49,37.47,12.28,57.43,8.75c18.53-3.28,33.95-12.33,45.98-27.2
			c14.48-17.89,18.04-38.53,16.65-60.67c-0.23-3.7-2.47-4.11-5.31-4.11c-11.31,0.01-22.63,0-33.94,0c0-0.02,0-0.04,0-0.06
			c-10.97,0-21.94,0.17-32.9-0.08c-4.8-0.11-6.58,1.69-6.34,6.42c0.27,5.38,0.02,10.79,0.08,16.18c0.05,4.6,2.18,7.06,7.06,6.99
			c8.01-0.12,16.01-0.01,24.02-0.03c7.56-0.02,7.94,0.57,4.79,7.77c-0.28,0.63-0.56,1.27-0.88,1.88
			c-12.68,24.28-50.47,25.63-65.92,2.28c-8.64-13.06-11.33-27.62-8.46-42.82c2.69-14.29,9.03-26.77,22.86-33.56
			c17.86-8.77,38.47-3.15,50.19,13.45c2.17,3.07,4.19,5.35,8.43,4.07c8.43-2.55,16.94-4.86,25.4-7.31c4.11-1.19,5.54-3.7,4.04-7.91
			c-3.36-9.4-9.16-17.06-16.48-23.68c-15.83-14.32-34.72-19.3-55.65-18.92c-27.49,0.5-50.06,10.77-66.03,33.35
			c-14.74,20.84-17.73,44.58-13.46,69.15C555.7,337.74,568.36,356.85,589.92,369.47z"/>
		<path class="st0" d="M276.49,182.43c0,0-0.06-0.04-0.06-0.04c0.01,0.02,0.02,0.03,0.02,0.04
			C276.47,182.43,276.48,182.43,276.49,182.43z"/>
		<path class="st0" d="M279.68,184.46c0,0-0.07-0.06-0.07-0.06c0.01,0.02,0.02,0.04,0.02,0.06
			C279.65,184.46,279.66,184.47,279.68,184.46z"/>
		<path class="st0" d="M274.45,181.34c0,0-0.09-0.07-0.09-0.07c0.01,0.03,0.02,0.04,0.03,0.06
			C274.41,181.33,274.43,181.33,274.45,181.34z"/>
		<path class="st0" d="M290.07,195.02c0,0-0.04-0.06-0.04-0.06c0,0.01,0,0.02,0,0.03C290.05,195,290.06,195.02,290.07,195.02z"/>
		<path class="st0" d="M290.32,236.07c-0.03,0-0.04,0.01-0.06,0.02c0,0.01,0,0.01,0,0.02C290.26,236.1,290.32,236.07,290.32,236.07z
			"/>
		<path class="st0" d="M175.18,295.38c0,1.42,0,2.83,0,4.25c1.47,9.03,1.47,18.06,0,27.09c0,1.42,0,2.83,0,4.25
			c1.52,4.4,1.04,9.04,1.53,13.57c0.03,0.28-0.99,0.68-1.53,1.03c0,0.71,0,1.41,0,2.12c1.94,6.8,0.65,13.74,0.83,20.61
			c0.25,9.59,1.18,10.7,10.84,10.7c20.68,0,41.36-0.02,62.04,0.03c1.85,0,3.85-0.62,5.5,0.85c2.22-0.29,4.47-0.43,6.65-0.9
			c11.39-2.47,21.64-6.93,29.48-16.08c14.76-17.22,13.38-55.83-14.05-65.66c-0.9-0.32-2.03-0.59-2.14-1.94
			c-0.15-1.72,1.26-1.77,2.28-2.32c3.81-2.05,7.7-4,10.32-7.66c0.36-0.41,0.71-0.82,1.07-1.24c-0.11-1.66,0.45-2.81,2.26-3.01
			c-0.19-1.88,0.04-3.53,2.25-4.12c0,0-0.05-0.05-0.05-0.05c-1.02-3.92,1.53-7.25,1.87-11.03c0.61-6.77-1.15-13.26-1.12-19.91
			c0.09-0.27,0.02-0.5-0.21-0.67c-2.9-0.7-2.98-2.98-2.96-5.3c-0.87-0.35-1.1-1.09-1.17-1.94c0,0-0.03-0.05-0.03-0.05
			c-1.39-0.1-2.02-0.88-1.98-2.25c-0.32-0.32-0.63-0.65-0.95-0.97c-0.38-0.39-0.75-0.78-1.13-1.17c-0.68-0.65-1.36-1.3-2.04-1.95
			c-1.59,0.03-2.71-0.59-3.11-2.2c-1,0.06-1.88-0.02-1.82-1.39c0,0-0.03,0.06-0.03,0.06c-0.66,0.17-1.08-0.12-1.33-0.7
			c-0.92,0.06-1.71-0.11-2.06-1.1c-5.6-0.22-10.4-3.28-15.83-4.42c-8.88-1.86-17.71-2.84-26.75-2.76
			c-14.77,0.13-29.54,0.02-44.31,0.05c-3.24,0.01-6.48,0.19-9.72,0.29c0,0-0.28,0.29-0.28,0.29c-0.78,8.47-2.61,16.9-0.86,25.47
			c0.05,0.26-0.96,0.73-1.47,1.1c0,2.44,0,4.88,0,7.31c2.79,3,2.79,16.84,0,19.85c0,0.71,0,1.41,0,2.12
			C176.65,282.19,176.64,288.78,175.18,295.38z M258.47,329.36c-0.21,8.77-6.34,15.92-15.17,17.1c-8.62,1.16-17.33,1.06-26.02,1.14
			c-2.37,0.02-2.96-0.82-2.9-3.02c0.13-4.86,0.04-9.73,0.04-14.6c0.02,0,0.03,0,0.05,0c0-4.87,0.04-9.73-0.02-14.6
			c-0.02-1.77,0.19-3.02,2.46-2.97c9.35,0.2,18.76-0.53,27.99,1.69C253.78,316.24,258.66,321.77,258.47,329.36z M212.67,253.65
			c0-1.21,0.69-1.89,1.82-2.17c7.63,0.03,15.27-0.21,22.89,0.16c6.72,0.32,12.84,2.67,15.32,9.56c2.5,6.94,0.86,13.28-4.78,18.34
			c-0.38,0.34-0.67,0.77-1,1.16c0.11,0.24,0.23,0.49,0.34,0.73c-0.51-0.08-1.03-0.15-1.54-0.23l-0.08,0.11
			c-1.6,3.44-5.02,3.41-7.9,3.54c-6.91,0.31-13.84,0.09-20.76,0.11c-2.31,0.01-4.28-0.5-4.3-3.28
			C212.63,272.35,212.66,263,212.67,253.65z"/>
		<path class="st0" d="M773.03,661.02c-6.61-8.76-7.11-13.65-0.09-22.69c53.72-69.04,106.75-138.62,159.78-208.2
			c3.18-4.18,9.75-8.03,6.24-14.79c-3.24-6.26-10.06-5.08-15.62-5.12c-31.15-0.24-62.32,0.65-93.43-0.5
			c-16.08-0.6-26.41,5.07-35.72,17.88c-39.33,54.12-79.44,107.67-119.3,161.4c-3.28,4.42-5.32,12.15-12.58,9.39
			c-7.06-2.68-3.25-10.17-3.28-15.33c-0.31-49.1-0.14-98.2-0.2-147.29c-0.02-21.57-4.26-25.76-25.97-25.81
			c-22.17-0.05-44.34-0.03-66.52,0.1c-23.96,0.14-27.42,3.54-27.44,27.48c-0.07,74.97-0.02,149.94-0.03,224.9
			c-0.01,76.02-0.05,152.05,0.02,228.07c0.02,18.35,3.83,22.07,22.26,22.14c22.7,0.09,45.4,0.03,68.1,0.03
			c28.22-0.01,29.59-1.37,29.58-29.21c-0.02-54.91-0.07-109.81,0.11-164.72c0.01-3.61-2.99-9.32,3.25-10.49
			c4.08-0.77,8.19,1.08,10.53,5.45c1.48,2.76,3.61,5.18,5.45,7.75c39.95,55.62,80.18,111.03,119.67,166.97
			c12.04,17.05,26.75,25.28,47.88,24.49c26.89-1.02,53.84-0.11,80.76-0.33c7.54-0.06,16.51,2.67,21.12-6.43
			c4.6-9.06-2.71-14.96-7.17-20.98C884.84,810.3,829.21,735.45,773.03,661.02z"/>
		<path class="st0" d="M446.81,667.3c-23.9-21.53-53.24-33.24-83.46-43.15c-32.33-10.6-66.17-16.94-96.71-32.55
			c-18.73-9.58-26.12-26.14-22.43-47.74c3.2-18.72,15.64-29.07,33.46-33.65c39.14-10.05,73.6,5.03,91.85,42
			c5.69,11.53,13.02,14.22,23.79,11.53c22.88-5.72,45.67-11.78,68.43-17.96c16.91-4.59,20.26-10.42,15.76-27.76
			c-8.69-33.45-26.75-61.52-55.76-79.73c-76.28-47.88-155.68-48.47-233.06-4.65c-51.16,28.98-76.97,76.24-70.72,136.29
			c5.86,56.32,38.95,92.27,91.18,112.26c31.42,12.02,63.84,20.63,95.86,30.65c10.54,3.3,20.87,6.99,30.45,12.62
			c23.59,13.84,33.77,34.01,28.23,56.16c-5.17,20.72-25.82,34.98-51.95,35.89c-38.9,1.36-64.78-14.98-80.36-51.02
			c-3.93-9.08-7.71-17.72-20.24-15.25c-26.26,5.16-52.5,10.42-78.82,15.25c-13.72,2.52-18.19,10.1-16.22,23.63
			c5.21,35.67,22.26,64.41,50.45,86.28c39.23,30.43,84.84,40.3,137.58,39.45c51.26,0.02,89.53-10.49,124.43-35.29
			C502.6,827.91,511.57,725.65,446.81,667.3z"/>
		<path class="st0" d="M1373.56,410.2c-29.03-0.28-58.07-0.07-87.1-0.08c-14.08,0-23.24,6.07-29.22,19.48
			c-23.09,51.76-46.92,103.18-70.65,154.65c-2.32,5.02-2.93,13.33-9.41,13.26c-6.36-0.07-7.16-8.31-9.44-13.38
			c-22.81-50.75-45.66-101.49-67.9-152.49c-6.38-14.64-14.94-22.49-32.18-21.82c-30.05,1.15-60.17,0.31-90.26,0.28
			c-20.08-0.02-21.97,2.96-13.03,20.58c37.54,74.03,73.49,148.92,113.13,221.8c27.8,51.09,49.07,102.19,37.91,150.12
			c0,36.91-0.06,62.25,0.02,87.59c0.06,18.95,3.4,22.39,21.78,22.45c24.28,0.08,48.57,0.04,72.85,0.01
			c22.15-0.02,25.1-2.95,25.13-25.82c0.06-46.98,0.32-93.97-0.23-140.95c-0.16-13.61,2.97-25.48,9.21-37.53
			c47.55-91.88,94.67-183.98,141.81-276.07C1394.88,414.85,1392.38,410.38,1373.56,410.2z"/>
		<path class="st0" d="M328.91,379.85c7.14,0.04,14.28,0,21.41,0.02c9.19,0.03,10.23-0.93,10.26-10.06
			c0.05-17.76,0.03-35.52,0.03-53.27c0.01-30.47,0.04-60.93,0.01-91.4c-0.01-7.24-1.09-8.29-8.06-8.34
			c-8.01-0.05-16.02-0.06-24.02-0.02c-7.02,0.04-8.06,1.13-8.06,8.26c-0.01,24.37,0,48.75,0,73.12c-0.01,0-0.01,0-0.02,0
			c0,24.37-0.01,48.75,0,73.12C320.45,378.6,321.65,379.81,328.91,379.85z"/>
	</g>
	<g>
		<linearGradient id="SVGID_1_" gradientUnits="userSpaceOnUse" x1="115.6455" y1="510.6867" x2="1411.4728" y2="510.6867">
			<stop  offset="0" style="stop-color:#0163B3"/>
			<stop  offset="1" style="stop-color:#0CA1DE"/>
		</linearGradient>
		<path class="st1" d="M1163.79,379.87c0-0.32,0-0.63,0-0.95c53.49,0,106.97-0.01,160.46,0.01c6.03,0,11.96-0.69,17.85-1.95
			c49.79-10.66,79.7-60.58,66.08-109.54c-13.68-49.18-61.42-74.44-105.57-64.18c-2.58,0.6-3.33-0.07-4-2.38
			c-1.45-4.96-2.92-9.95-4.9-14.71c-14.18-34.14-36.49-60.5-72.3-73.05c-23.72-8.31-48.26-9.34-73.01-5.56
			c-27.29,4.18-51.72,14.63-71.63,34.12c-24.78,24.25-38.13,53.96-40.67,88.51c-0.19,2.54-0.7,3.35-3.43,2.93
			c-12.64-1.97-24.89,0.17-36.81,4.33c-37.33,13.02-61.36,50.18-56.51,86.74c4.14,31.24,30.93,55.67,62.53,55.67
			C1055.85,379.86,1109.82,379.87,1163.79,379.87z"/>
		
			<linearGradient id="SVGID_00000089552997113731531150000004931832730217519274_" gradientUnits="userSpaceOnUse" x1="115.6455" y1="510.6867" x2="1411.4728" y2="510.6867">
			<stop  offset="0" style="stop-color:#0163B3"/>
			<stop  offset="1" style="stop-color:#0CA1DE"/>
		</linearGradient>
		<path style="fill:url(#SVGID_00000089552997113731531150000004931832730217519274_);" d="M810.67,379.87
			c24.69-0.01,47.79-9.46,65.08-26.61c17.31-17.16,26.82-40.07,26.79-64.52c-0.03-24.24-9.49-46.95-26.65-63.96
			c-17.14-16.99-40.01-26.35-64.4-26.35h0l-0.14,0c-50.06,0.08-90.81,40.49-90.84,90.09c-0.01,24.54,9.3,47.51,26.23,64.68
			C763.7,370.4,786.4,379.87,810.67,379.87z M772.41,248.49c10.48-10.63,24.01-16.54,38.1-16.62l0.33,0
			c30.72,0,55.96,25.69,56.24,57.28c0.14,15.25-5.66,29.6-16.33,40.42c-10.54,10.69-24.57,16.62-39.51,16.69l-0.3,0
			c-31.24,0-55.01-24.57-55.29-57.14C755.53,274.23,761.64,259.42,772.41,248.49z"/>
		
			<linearGradient id="SVGID_00000084526452597633671760000003294959994444265877_" gradientUnits="userSpaceOnUse" x1="115.6455" y1="510.6867" x2="1411.4728" y2="510.6867">
			<stop  offset="0" style="stop-color:#0163B3"/>
			<stop  offset="1" style="stop-color:#0CA1DE"/>
		</linearGradient>
		<path style="fill:url(#SVGID_00000084526452597633671760000003294959994444265877_);" d="M788.43,328.6h29.87
			c4.36,0,8.34-0.97,11.95-2.9c3.61-1.93,6.48-4.53,8.62-7.78c2.14-3.25,3.21-6.87,3.21-10.85c0-1.77-0.11-3.75-0.34-5.95
			c-0.23-2.2-0.7-4.38-1.44-6.54c-0.73-2.16-1.83-4.07-3.3-5.72c-0.52-0.59-1.11-1.11-1.76-1.56c-1.46-1.01-1.7-3.14-0.49-4.44
			c0.95-1.01,1.66-2.2,2.14-3.55c0.98-2.76,1.47-5.38,1.47-7.86c0-4.4-1.02-8.23-3.07-11.5c-2.05-3.27-4.82-5.79-8.31-7.58
			c-3.49-1.78-7.4-2.68-11.72-2.68h-26.83c-1.68,0-3.04,1.36-3.04,3.04v72.81C785.39,327.24,786.75,328.6,788.43,328.6z
			 M802.3,267.18c0-1.68,1.36-3.04,3.04-3.04h7.89c2.25,0,4.19,0.62,5.8,1.86c1.61,1.24,2.42,3.02,2.42,5.35
			c0,2.29-0.81,4.19-2.42,5.69c-1.62,1.5-3.55,2.25-5.8,2.25h-7.89c-1.68,0-3.04-1.36-3.04-3.04V267.18z M802.3,296.42
			c0-1.68,1.36-3.04,3.04-3.04h11.16c2.93,0,5.43,1.05,7.49,3.16c2.07,2.1,3.1,4.45,3.1,7.04c0,3.08-1.03,5.64-3.1,7.66
			c-2.07,2.03-4.56,3.04-7.49,3.04h-11.16c-1.68,0-3.04-1.36-3.04-3.04V296.42z"/>
		
			<linearGradient id="SVGID_00000151545620402602425080000014305828335486571190_" gradientUnits="userSpaceOnUse" x1="115.6455" y1="510.6867" x2="1411.4728" y2="510.6867">
			<stop  offset="0" style="stop-color:#0163B3"/>
			<stop  offset="1" style="stop-color:#0CA1DE"/>
		</linearGradient>
		<path style="fill:url(#SVGID_00000151545620402602425080000014305828335486571190_);" d="M480.99,379.84c0,0,0.04,0.03,0.04,0.03
			c0-0.01,0-0.01,0-0.02C481.01,379.85,481,379.84,480.99,379.84z"/>
		
			<linearGradient id="SVGID_00000067914444584669651670000001884750190030015108_" gradientUnits="userSpaceOnUse" x1="115.6455" y1="510.6867" x2="1411.4728" y2="510.6867">
			<stop  offset="0" style="stop-color:#0163B3"/>
			<stop  offset="1" style="stop-color:#0CA1DE"/>
		</linearGradient>
		<path style="fill:url(#SVGID_00000067914444584669651670000001884750190030015108_);" d="M478.86,379.83c0,0,0.05,0.04,0.05,0.04
			c0-0.01,0-0.02,0-0.03C478.89,379.84,478.88,379.83,478.86,379.83z"/>
		
			<linearGradient id="SVGID_00000127035608304549585010000012664536041441563813_" gradientUnits="userSpaceOnUse" x1="115.6455" y1="510.6867" x2="1411.4728" y2="510.6867">
			<stop  offset="0" style="stop-color:#0163B3"/>
			<stop  offset="1" style="stop-color:#0CA1DE"/>
		</linearGradient>
		<path style="fill:url(#SVGID_00000127035608304549585010000012664536041441563813_);" d="M492.26,219.26
			c-0.86,0.52-1.65,1.08-1.56,2.26c1.36,1.47,0.85,3.29,0.85,4.97c0.03,26.19,0.04,52.38-0.02,78.57c0,1.76,0.85,3.91-1.38,5.14
			c-2.47,0.47-3.2-1.47-4.29-3.02c-5.69-8.05-11.43-16.07-17.15-24.1c-0.33-0.41-0.66-0.82-0.99-1.23c-3.68-2-5.42-5.34-6.37-9.25
			c-1.9-1.39-4.61-2.24-3.66-5.53c0,0-0.07-0.11-0.07-0.11c-1.39,0.18-1.46-0.74-1.45-1.72c-0.59-0.22-0.9-0.63-0.83-1.29
			c0,0,0.09,0.01,0.09,0.01c-2.58-0.31-2.99-2.13-2.97-4.26c0,0-0.03-0.2-0.03-0.2c-1.52,0.3-1.46-0.67-1.38-1.65
			c-1.03-0.24-1.22-1.03-1.23-1.95c-3.23-1.39-4.6-4.09-5.18-7.35c-1.57-0.13-2.4-0.72-1.46-2.41c0,0-0.18-0.23-0.18-0.23
			c-2.47,0-2.21-2.02-2.62-3.55c0,0-0.01-0.02-0.01-0.02c-0.31-0.38-0.61-0.76-0.92-1.15c-2.27,0.04-2.23-1.51-2.13-3.11
			c-1.58-0.12-2.39-0.72-1.47-2.4c0,0-0.17-0.25-0.17-0.25c-3.8-1.25-4.89-4.46-5.69-7.88c-0.23-0.34-0.46-0.67-0.68-1.01
			c-1.79-0.3-2.51-1.41-2.4-3.15c0,0,0.05,0.06,0.05,0.06c-0.32-0.42-0.63-0.84-0.95-1.26c-4.02-2.73-8.53-2.89-13.22-2.91
			c-8.64-0.03-17.3,0.68-25.92-0.42c0,0-0.29,0.01-0.29,0.01c-0.18,3.1-0.5,6.2-0.51,9.31c-0.06,50.37-0.08,100.74-0.11,151.1
			c12.31,0.08,24.61,0.15,36.92,0.23c0,0,0.05,0,0.05,0c1.38-9.49,0.62-19.03,0.68-28.55c0.12-18.76,0.01-37.52,0.07-56.28
			c0.01-1.79-0.8-3.89,1.23-5.26c5.39,1.44,6.55,6.78,9.26,10.5c13.37,18.34,26.39,36.95,39.53,55.46c0.24-0.13,0.47-0.26,0.71-0.39
			c0.01,0.51,0.02,1.02,0.03,1.53h0c0,0,0,0,0,0c0,0.01,0,0.03,0,0.04c0,0,0.08,0,0.16-0.01c0.62,0.09,0.93,0.4,0.65,1.12
			c0,0,0.08,0.27,0.08,0.27c2.32-0.26,2.05,1.45,2.18,2.86c0,0-0.07,0.08-0.07,0.08c1.4-0.18,1.46,0.74,1.45,1.72
			c2.28-0.05,2.23,1.52,2.12,3.12c2.69,0.85,4.33,2.4,3.59,5.51c0,0,0.15,0.21,0.15,0.21c2.95-0.3,2.45,1.88,2.59,3.6
			c0.33,0.4,0.66,0.79,0.99,1.19c0,0-0.08-0.08-0.08-0.08c0.34,0.38,0.69,0.77,1.03,1.15c1.47-0.17,2.19,0.5,2.19,1.98
			c11.97,0.2,23.96-0.81,35.91,0.55c0,0,0.22-0.19,0.22-0.19c0.17-2.93,0.49-5.86,0.5-8.79c0.03-47.98,0.02-95.95,0.04-143.93
			c0-2.24,0.29-4.48,0.44-6.73c0,0-0.05-0.23-0.05-0.23C516.47,218.62,504.35,219.89,492.26,219.26z"/>
		
			<linearGradient id="SVGID_00000105385417113144727120000003096350578154095535_" gradientUnits="userSpaceOnUse" x1="115.6455" y1="510.6867" x2="1411.4728" y2="510.6867">
			<stop  offset="0" style="stop-color:#0163B3"/>
			<stop  offset="1" style="stop-color:#0CA1DE"/>
		</linearGradient>
		<path style="fill:url(#SVGID_00000105385417113144727120000003096350578154095535_);" d="M467.83,236.7c0,0-0.13-0.09-0.13-0.09
			c0.01,0.01,0.01,0.02,0.02,0.03C467.76,236.66,467.79,236.68,467.83,236.7z"/>
		
			<linearGradient id="SVGID_00000054958384616580109140000011708151221227752354_" gradientUnits="userSpaceOnUse" x1="115.6455" y1="510.6867" x2="1411.4728" y2="510.6867">
			<stop  offset="0" style="stop-color:#0163B3"/>
			<stop  offset="1" style="stop-color:#0CA1DE"/>
		</linearGradient>
		<path style="fill:url(#SVGID_00000054958384616580109140000011708151221227752354_);" d="M385.97,334.11c0,0-0.01,0-0.01,0
			c0,0,0.01,0.01,0.01,0.01C385.97,334.12,385.97,334.11,385.97,334.11z"/>
		
			<linearGradient id="SVGID_00000072985128812660065670000012478061095231439744_" gradientUnits="userSpaceOnUse" x1="115.6455" y1="510.6867" x2="1411.4728" y2="510.6867">
			<stop  offset="0" style="stop-color:#0163B3"/>
			<stop  offset="1" style="stop-color:#0CA1DE"/>
		</linearGradient>
		<path style="fill:url(#SVGID_00000072985128812660065670000012478061095231439744_);" d="M439.5,196.01c0,0-0.08-0.06-0.08-0.06
			c0.01,0.02,0.03,0.04,0.04,0.05C439.48,196.01,439.49,196.01,439.5,196.01z"/>
		
			<linearGradient id="SVGID_00000006706919056971205040000000161229855608421519_" gradientUnits="userSpaceOnUse" x1="115.6455" y1="510.6867" x2="1411.4728" y2="510.6867">
			<stop  offset="0" style="stop-color:#0163B3"/>
			<stop  offset="1" style="stop-color:#0CA1DE"/>
		</linearGradient>
		<polygon style="fill:url(#SVGID_00000006706919056971205040000000161229855608421519_);" points="449.84,210.71 449.83,210.69 
			449.83,210.7 		"/>
		
			<linearGradient id="SVGID_00000056421322615746105290000011672606399854316672_" gradientUnits="userSpaceOnUse" x1="115.6455" y1="510.6867" x2="1411.4728" y2="510.6867">
			<stop  offset="0" style="stop-color:#0163B3"/>
			<stop  offset="1" style="stop-color:#0CA1DE"/>
		</linearGradient>
		<path style="fill:url(#SVGID_00000056421322615746105290000011672606399854316672_);" d="M426.11,177.07c0,0-0.11-0.08-0.11-0.08
			c0.01,0.01,0.01,0.02,0.02,0.02C426.05,177.04,426.08,177.05,426.11,177.07z"/>
		
			<linearGradient id="SVGID_00000125595064364078953910000004501700851354170502_" gradientUnits="userSpaceOnUse" x1="115.6455" y1="510.6867" x2="1411.4728" y2="510.6867">
			<stop  offset="0" style="stop-color:#0163B3"/>
			<stop  offset="1" style="stop-color:#0CA1DE"/>
		</linearGradient>
		<path style="fill:url(#SVGID_00000125595064364078953910000004501700851354170502_);" d="M456.22,220.06c0,0-0.04-0.06-0.04-0.06
			c0,0.01,0,0.02,0,0.03C456.2,220.04,456.2,220.06,456.22,220.06z"/>
		
			<linearGradient id="SVGID_00000001634085023615846240000008345630136376883882_" gradientUnits="userSpaceOnUse" x1="115.6455" y1="510.6867" x2="1411.4728" y2="510.6867">
			<stop  offset="0" style="stop-color:#0163B3"/>
			<stop  offset="1" style="stop-color:#0CA1DE"/>
		</linearGradient>
		<path style="fill:url(#SVGID_00000001634085023615846240000008345630136376883882_);" d="M461.39,227.41c0,0-0.04-0.05-0.04-0.05
			c0,0.01,0.01,0.02,0.01,0.03C461.37,227.4,461.38,227.41,461.39,227.41z"/>
		
			<linearGradient id="SVGID_00000140729614833670198270000002997928202173069245_" gradientUnits="userSpaceOnUse" x1="115.6455" y1="510.6867" x2="1411.4728" y2="510.6867">
			<stop  offset="0" style="stop-color:#0163B3"/>
			<stop  offset="1" style="stop-color:#0CA1DE"/>
		</linearGradient>
		<path style="fill:url(#SVGID_00000140729614833670198270000002997928202173069245_);" d="M451.06,212.59c0,0.02,0,0.04,0,0.06
			c0.03,0.01,0.05,0.03,0.08,0.03C451.14,212.68,451.06,212.58,451.06,212.59z"/>
		
			<linearGradient id="SVGID_00000117652632459615216070000016732270458025446536_" gradientUnits="userSpaceOnUse" x1="115.6455" y1="510.6867" x2="1411.4728" y2="510.6867">
			<stop  offset="0" style="stop-color:#0163B3"/>
			<stop  offset="1" style="stop-color:#0CA1DE"/>
		</linearGradient>
		<path style="fill:url(#SVGID_00000117652632459615216070000016732270458025446536_);" d="M444.68,203.36c0,0-0.04-0.04-0.04-0.04
			c0,0.01,0,0.02,0.01,0.03C444.66,203.35,444.67,203.36,444.68,203.36z"/>
		
			<linearGradient id="SVGID_00000144325042760745220280000009219418532018567347_" gradientUnits="userSpaceOnUse" x1="115.6455" y1="510.6867" x2="1411.4728" y2="510.6867">
			<stop  offset="0" style="stop-color:#0163B3"/>
			<stop  offset="1" style="stop-color:#0CA1DE"/>
		</linearGradient>
		<path style="fill:url(#SVGID_00000144325042760745220280000009219418532018567347_);" d="M437.34,192.88c0,0.01,0,0.02,0,0.02
			c0.01,0,0.02,0,0.03,0.01C437.37,192.9,437.34,192.88,437.34,192.88z"/>
		
			<linearGradient id="SVGID_00000166653161790704738530000014458735979565067179_" gradientUnits="userSpaceOnUse" x1="115.6455" y1="510.6867" x2="1411.4728" y2="510.6867">
			<stop  offset="0" style="stop-color:#0163B3"/>
			<stop  offset="1" style="stop-color:#0CA1DE"/>
		</linearGradient>
		<path style="fill:url(#SVGID_00000166653161790704738530000014458735979565067179_);" d="M589.92,369.47
			c17.93,10.49,37.47,12.28,57.43,8.75c18.53-3.28,33.95-12.33,45.98-27.2c14.48-17.89,18.04-38.53,16.65-60.67
			c-0.23-3.7-2.47-4.11-5.31-4.11c-11.31,0.01-22.63,0-33.94,0c0-0.02,0-0.04,0-0.06c-10.97,0-21.94,0.17-32.9-0.08
			c-4.8-0.11-6.58,1.69-6.34,6.42c0.27,5.38,0.02,10.79,0.08,16.18c0.05,4.6,2.18,7.06,7.06,6.99c8.01-0.12,16.01-0.01,24.02-0.03
			c7.56-0.02,7.94,0.57,4.79,7.77c-0.28,0.63-0.56,1.27-0.88,1.88c-12.68,24.28-50.47,25.63-65.92,2.28
			c-8.64-13.06-11.33-27.62-8.46-42.82c2.69-14.29,9.03-26.77,22.86-33.56c17.86-8.77,38.47-3.15,50.19,13.45
			c2.17,3.07,4.19,5.35,8.43,4.07c8.43-2.55,16.94-4.86,25.4-7.31c4.11-1.19,5.54-3.7,4.04-7.91c-3.36-9.4-9.16-17.06-16.48-23.68
			c-15.83-14.32-34.72-19.3-55.65-18.92c-27.49,0.5-50.06,10.77-66.03,33.35c-14.74,20.84-17.73,44.58-13.46,69.15
			C555.7,337.74,568.36,356.85,589.92,369.47z"/>
		
			<linearGradient id="SVGID_00000153691494886233957550000009649751751137318831_" gradientUnits="userSpaceOnUse" x1="115.6455" y1="510.6867" x2="1411.4728" y2="510.6867">
			<stop  offset="0" style="stop-color:#0163B3"/>
			<stop  offset="1" style="stop-color:#0CA1DE"/>
		</linearGradient>
		<path style="fill:url(#SVGID_00000153691494886233957550000009649751751137318831_);" d="M276.49,182.43c0,0-0.06-0.04-0.06-0.04
			c0.01,0.02,0.02,0.03,0.02,0.04C276.47,182.43,276.48,182.43,276.49,182.43z"/>
		
			<linearGradient id="SVGID_00000098916636397065870960000008047127233665564599_" gradientUnits="userSpaceOnUse" x1="115.6455" y1="510.6867" x2="1411.4728" y2="510.6867">
			<stop  offset="0" style="stop-color:#0163B3"/>
			<stop  offset="1" style="stop-color:#0CA1DE"/>
		</linearGradient>
		<path style="fill:url(#SVGID_00000098916636397065870960000008047127233665564599_);" d="M279.68,184.46c0,0-0.07-0.06-0.07-0.06
			c0.01,0.02,0.02,0.04,0.02,0.06C279.65,184.46,279.66,184.47,279.68,184.46z"/>
		
			<linearGradient id="SVGID_00000140729764844608177520000002896048080824564918_" gradientUnits="userSpaceOnUse" x1="115.6455" y1="510.6867" x2="1411.4728" y2="510.6867">
			<stop  offset="0" style="stop-color:#0163B3"/>
			<stop  offset="1" style="stop-color:#0CA1DE"/>
		</linearGradient>
		<path style="fill:url(#SVGID_00000140729764844608177520000002896048080824564918_);" d="M274.45,181.34c0,0-0.09-0.07-0.09-0.07
			c0.01,0.03,0.02,0.04,0.03,0.06C274.41,181.33,274.43,181.33,274.45,181.34z"/>
		
			<linearGradient id="SVGID_00000168799275051801377110000007734922844864023714_" gradientUnits="userSpaceOnUse" x1="115.6455" y1="510.6867" x2="1411.4728" y2="510.6867">
			<stop  offset="0" style="stop-color:#0163B3"/>
			<stop  offset="1" style="stop-color:#0CA1DE"/>
		</linearGradient>
		<path style="fill:url(#SVGID_00000168799275051801377110000007734922844864023714_);" d="M290.07,195.02c0,0-0.04-0.06-0.04-0.06
			c0,0.01,0,0.02,0,0.03C290.05,195,290.06,195.02,290.07,195.02z"/>
		
			<linearGradient id="SVGID_00000104678397913207563910000012809974599141682062_" gradientUnits="userSpaceOnUse" x1="115.6455" y1="510.6867" x2="1411.4728" y2="510.6867">
			<stop  offset="0" style="stop-color:#0163B3"/>
			<stop  offset="1" style="stop-color:#0CA1DE"/>
		</linearGradient>
		<path style="fill:url(#SVGID_00000104678397913207563910000012809974599141682062_);" d="M290.32,236.07
			c-0.03,0-0.04,0.01-0.06,0.02c0,0.01,0,0.01,0,0.02C290.26,236.1,290.32,236.07,290.32,236.07z"/>
		
			<linearGradient id="SVGID_00000005984369546789943930000015674682323213615778_" gradientUnits="userSpaceOnUse" x1="115.6455" y1="510.6867" x2="1411.4728" y2="510.6867">
			<stop  offset="0" style="stop-color:#0163B3"/>
			<stop  offset="1" style="stop-color:#0CA1DE"/>
		</linearGradient>
		<path style="fill:url(#SVGID_00000005984369546789943930000015674682323213615778_);" d="M175.18,295.38c0,1.42,0,2.83,0,4.25
			c1.47,9.03,1.47,18.06,0,27.09c0,1.42,0,2.83,0,4.25c1.52,4.4,1.04,9.04,1.53,13.57c0.03,0.28-0.99,0.68-1.53,1.03
			c0,0.71,0,1.41,0,2.12c1.94,6.8,0.65,13.74,0.83,20.61c0.25,9.59,1.18,10.7,10.84,10.7c20.68,0,41.36-0.02,62.04,0.03
			c1.85,0,3.85-0.62,5.5,0.85c2.22-0.29,4.47-0.43,6.65-0.9c11.39-2.47,21.64-6.93,29.48-16.08c14.76-17.22,13.38-55.83-14.05-65.66
			c-0.9-0.32-2.03-0.59-2.14-1.94c-0.15-1.72,1.26-1.77,2.28-2.32c3.81-2.05,7.7-4,10.32-7.66c0.36-0.41,0.71-0.82,1.07-1.24
			c-0.11-1.66,0.45-2.81,2.26-3.01c-0.19-1.88,0.04-3.53,2.25-4.12c0,0-0.05-0.05-0.05-0.05c-1.02-3.92,1.53-7.25,1.87-11.03
			c0.61-6.77-1.15-13.26-1.12-19.91c0.09-0.27,0.02-0.5-0.21-0.67c-2.9-0.7-2.98-2.98-2.96-5.3c-0.87-0.35-1.1-1.09-1.17-1.94
			c0,0-0.03-0.05-0.03-0.05c-1.39-0.1-2.02-0.88-1.98-2.25c-0.32-0.32-0.63-0.65-0.95-0.97c-0.38-0.39-0.75-0.78-1.13-1.17
			c-0.68-0.65-1.36-1.3-2.04-1.95c-1.59,0.03-2.71-0.59-3.11-2.2c-1,0.06-1.88-0.02-1.82-1.39c0,0-0.03,0.06-0.03,0.06
			c-0.66,0.17-1.08-0.12-1.33-0.7c-0.92,0.06-1.71-0.11-2.06-1.1c-5.6-0.22-10.4-3.28-15.83-4.42c-8.88-1.86-17.71-2.84-26.75-2.76
			c-14.77,0.13-29.54,0.02-44.31,0.05c-3.24,0.01-6.48,0.19-9.72,0.29c0,0-0.28,0.29-0.28,0.29c-0.78,8.47-2.61,16.9-0.86,25.47
			c0.05,0.26-0.96,0.73-1.47,1.1c0,2.44,0,4.88,0,7.31c2.79,3,2.79,16.84,0,19.85c0,0.71,0,1.41,0,2.12
			C176.65,282.19,176.64,288.78,175.18,295.38z M258.47,329.36c-0.21,8.77-6.34,15.92-15.17,17.1c-8.62,1.16-17.33,1.06-26.02,1.14
			c-2.37,0.02-2.96-0.82-2.9-3.02c0.13-4.86,0.04-9.73,0.04-14.6c0.02,0,0.03,0,0.05,0c0-4.87,0.04-9.73-0.02-14.6
			c-0.02-1.77,0.19-3.02,2.46-2.97c9.35,0.2,18.76-0.53,27.99,1.69C253.78,316.24,258.66,321.77,258.47,329.36z M212.67,253.65
			c0-1.21,0.69-1.89,1.82-2.17c7.63,0.03,15.27-0.21,22.89,0.16c6.72,0.32,12.84,2.67,15.32,9.56c2.5,6.94,0.86,13.28-4.78,18.34
			c-0.38,0.34-0.67,0.77-1,1.16c0.11,0.24,0.23,0.49,0.34,0.73c-0.51-0.08-1.03-0.15-1.54-0.23l-0.08,0.11
			c-1.6,3.44-5.02,3.41-7.9,3.54c-6.91,0.31-13.84,0.09-20.76,0.11c-2.31,0.01-4.28-0.5-4.3-3.28
			C212.63,272.35,212.66,263,212.67,253.65z"/>
		
			<linearGradient id="SVGID_00000036966618258381014040000005928528386883904168_" gradientUnits="userSpaceOnUse" x1="115.6455" y1="510.6867" x2="1411.4728" y2="510.6867">
			<stop  offset="0" style="stop-color:#0163B3"/>
			<stop  offset="1" style="stop-color:#0CA1DE"/>
		</linearGradient>
		<path style="fill:url(#SVGID_00000036966618258381014040000005928528386883904168_);" d="M773.03,661.02
			c-6.61-8.76-7.11-13.65-0.09-22.69c53.72-69.04,106.75-138.62,159.78-208.2c3.18-4.18,9.75-8.03,6.24-14.79
			c-3.24-6.26-10.06-5.08-15.62-5.12c-31.15-0.24-62.32,0.65-93.43-0.5c-16.08-0.6-26.41,5.07-35.72,17.88
			c-39.33,54.12-79.44,107.67-119.3,161.4c-3.28,4.42-5.32,12.15-12.58,9.39c-7.06-2.68-3.25-10.17-3.28-15.33
			c-0.31-49.1-0.14-98.2-0.2-147.29c-0.02-21.57-4.26-25.76-25.97-25.81c-22.17-0.05-44.34-0.03-66.52,0.1
			c-23.96,0.14-27.42,3.54-27.44,27.48c-0.07,74.97-0.02,149.94-0.03,224.9c-0.01,76.02-0.05,152.05,0.02,228.07
			c0.02,18.35,3.83,22.07,22.26,22.14c22.7,0.09,45.4,0.03,68.1,0.03c28.22-0.01,29.59-1.37,29.58-29.21
			c-0.02-54.91-0.07-109.81,0.11-164.72c0.01-3.61-2.99-9.32,3.25-10.49c4.08-0.77,8.19,1.08,10.53,5.45
			c1.48,2.76,3.61,5.18,5.45,7.75c39.95,55.62,80.18,111.03,119.67,166.97c12.04,17.05,26.75,25.28,47.88,24.49
			c26.89-1.02,53.84-0.11,80.76-0.33c7.54-0.06,16.51,2.67,21.12-6.43c4.6-9.06-2.71-14.96-7.17-20.98
			C884.84,810.3,829.21,735.45,773.03,661.02z"/>
		
			<linearGradient id="SVGID_00000008130385933133515310000015347917346138135976_" gradientUnits="userSpaceOnUse" x1="115.6455" y1="510.6867" x2="1411.4728" y2="510.6867">
			<stop  offset="0" style="stop-color:#0163B3"/>
			<stop  offset="1" style="stop-color:#0CA1DE"/>
		</linearGradient>
		<path style="fill:url(#SVGID_00000008130385933133515310000015347917346138135976_);" d="M446.81,667.3
			c-23.9-21.53-53.24-33.24-83.46-43.15c-32.33-10.6-66.17-16.94-96.71-32.55c-18.73-9.58-26.12-26.14-22.43-47.74
			c3.2-18.72,15.64-29.07,33.46-33.65c39.14-10.05,73.6,5.03,91.85,42c5.69,11.53,13.02,14.22,23.79,11.53
			c22.88-5.72,45.67-11.78,68.43-17.96c16.91-4.59,20.26-10.42,15.76-27.76c-8.69-33.45-26.75-61.52-55.76-79.73
			c-76.28-47.88-155.68-48.47-233.06-4.65c-51.16,28.98-76.97,76.24-70.72,136.29c5.86,56.32,38.95,92.27,91.18,112.26
			c31.42,12.02,63.84,20.63,95.86,30.65c10.54,3.3,20.87,6.99,30.45,12.62c23.59,13.84,33.77,34.01,28.23,56.16
			c-5.17,20.72-25.82,34.98-51.95,35.89c-38.9,1.36-64.78-14.98-80.36-51.02c-3.93-9.08-7.71-17.72-20.24-15.25
			c-26.26,5.16-52.5,10.42-78.82,15.25c-13.72,2.52-18.19,10.1-16.22,23.63c5.21,35.67,22.26,64.41,50.45,86.28
			c39.23,30.43,84.84,40.3,137.58,39.45c51.26,0.02,89.53-10.49,124.43-35.29C502.6,827.91,511.57,725.65,446.81,667.3z"/>
		
			<linearGradient id="SVGID_00000002374895200285517640000016147598360657667766_" gradientUnits="userSpaceOnUse" x1="115.6455" y1="510.6867" x2="1411.4728" y2="510.6867">
			<stop  offset="0" style="stop-color:#0163B3"/>
			<stop  offset="1" style="stop-color:#0CA1DE"/>
		</linearGradient>
		<path style="fill:url(#SVGID_00000002374895200285517640000016147598360657667766_);" d="M1373.56,410.2
			c-29.03-0.28-58.07-0.07-87.1-0.08c-14.08,0-23.24,6.07-29.22,19.48c-23.09,51.76-46.92,103.18-70.65,154.65
			c-2.32,5.02-2.93,13.33-9.41,13.26c-6.36-0.07-7.16-8.31-9.44-13.38c-22.81-50.75-45.66-101.49-67.9-152.49
			c-6.38-14.64-14.94-22.49-32.18-21.82c-30.05,1.15-60.17,0.31-90.26,0.28c-20.08-0.02-21.97,2.96-13.03,20.58
			c37.54,74.03,73.49,148.92,113.13,221.8c27.8,51.09,49.07,102.19,37.91,150.12c0,36.91-0.06,62.25,0.02,87.59
			c0.06,18.95,3.4,22.39,21.78,22.45c24.28,0.08,48.57,0.04,72.85,0.01c22.15-0.02,25.1-2.95,25.13-25.82
			c0.06-46.98,0.32-93.97-0.23-140.95c-0.16-13.61,2.97-25.48,9.21-37.53c47.55-91.88,94.67-183.98,141.81-276.07
			C1394.88,414.85,1392.38,410.38,1373.56,410.2z"/>
		
			<linearGradient id="SVGID_00000045616431980478830010000006439651803965704321_" gradientUnits="userSpaceOnUse" x1="115.6455" y1="510.6867" x2="1411.4728" y2="510.6867">
			<stop  offset="0" style="stop-color:#0163B3"/>
			<stop  offset="1" style="stop-color:#0CA1DE"/>
		</linearGradient>
		<path style="fill:url(#SVGID_00000045616431980478830010000006439651803965704321_);" d="M328.91,379.85
			c7.14,0.04,14.28,0,21.41,0.02c9.19,0.03,10.23-0.93,10.26-10.06c0.05-17.76,0.03-35.52,0.03-53.27
			c0.01-30.47,0.04-60.93,0.01-91.4c-0.01-7.24-1.09-8.29-8.06-8.34c-8.01-0.05-16.02-0.06-24.02-0.02
			c-7.02,0.04-8.06,1.13-8.06,8.26c-0.01,24.37,0,48.75,0,73.12c-0.01,0-0.01,0-0.02,0c0,24.37-0.01,48.75,0,73.12
			C320.45,378.6,321.65,379.81,328.91,379.85z"/>
	</g>
</g>
</svg>
