<?xml version="1.0" encoding="UTF-8"?>
<svg id="Layer_1" data-name="Layer 1" xmlns="http://www.w3.org/2000/svg" xmlns:xlink="http://www.w3.org/1999/xlink" viewBox="0 0 274.74 326.46">
  <defs>
    <style>
      .cls-1 {
        fill: #fff;
      }

      .cls-2 {
        fill: url(#linear-gradient-7);
        stroke: url(#linear-gradient-8);
      }

      .cls-2, .cls-3, .cls-4, .cls-5, .cls-6, .cls-7, .cls-8, .cls-9, .cls-10, .cls-11, .cls-12, .cls-13, .cls-14, .cls-15, .cls-16, .cls-17, .cls-18, .cls-19, .cls-20, .cls-21, .cls-22 {
        fill-opacity: .09;
        stroke-miterlimit: 10;
        stroke-opacity: .35;
        stroke-width: .5px;
      }

      .cls-3 {
        fill: url(#linear-gradient-5);
        stroke: url(#linear-gradient-6);
      }

      .cls-4 {
        fill: url(#linear-gradient-3);
        stroke: url(#linear-gradient-4);
      }

      .cls-5 {
        fill: url(#linear-gradient-15);
        stroke: url(#linear-gradient-16);
      }

      .cls-6 {
        fill: url(#linear-gradient-19);
        stroke: url(#linear-gradient-20);
      }

      .cls-7 {
        fill: url(#linear-gradient-13);
        stroke: url(#linear-gradient-14);
      }

      .cls-8 {
        fill: url(#linear-gradient-11);
        stroke: url(#linear-gradient-12);
      }

      .cls-9 {
        fill: url(#linear-gradient-21);
        stroke: url(#linear-gradient-22);
      }

      .cls-10 {
        fill: url(#linear-gradient-23);
        stroke: url(#linear-gradient-24);
      }

      .cls-11 {
        fill: url(#linear-gradient-17);
        stroke: url(#linear-gradient-18);
      }

      .cls-12 {
        fill: url(#linear-gradient-27);
        stroke: url(#linear-gradient-28);
      }

      .cls-13 {
        fill: url(#linear-gradient-35);
        stroke: url(#linear-gradient-36);
      }

      .cls-14 {
        fill: url(#linear-gradient-39);
        stroke: url(#linear-gradient-40);
      }

      .cls-15 {
        fill: url(#linear-gradient-25);
        stroke: url(#linear-gradient-26);
      }

      .cls-16 {
        fill: url(#linear-gradient-37);
        stroke: url(#linear-gradient-38);
      }

      .cls-17 {
        fill: url(#linear-gradient-31);
        stroke: url(#linear-gradient-32);
      }

      .cls-18 {
        fill: url(#linear-gradient-33);
        stroke: url(#linear-gradient-34);
      }

      .cls-19 {
        fill: url(#linear-gradient-29);
        stroke: url(#linear-gradient-30);
      }

      .cls-20 {
        fill: url(#linear-gradient-41);
        stroke: url(#linear-gradient-42);
      }

      .cls-23 {
        fill: url(#linear-gradient-51);
      }

      .cls-24 {
        fill: url(#linear-gradient-52);
      }

      .cls-25 {
        fill: url(#linear-gradient-50);
      }

      .cls-26 {
        fill: url(#linear-gradient-43);
      }

      .cls-27 {
        fill: url(#linear-gradient-45);
      }

      .cls-28 {
        fill: url(#linear-gradient-46);
      }

      .cls-29 {
        fill: url(#linear-gradient-44);
      }

      .cls-30 {
        fill: url(#linear-gradient-49);
      }

      .cls-31 {
        fill: url(#linear-gradient-47);
      }

      .cls-32 {
        fill: url(#linear-gradient-48);
      }

      .cls-21 {
        fill: url(#linear-gradient-9);
        stroke: url(#linear-gradient-10);
      }

      .cls-22 {
        fill: url(#linear-gradient);
        stroke: url(#linear-gradient-2);
      }
    </style>
    <linearGradient id="linear-gradient" x1="14.67" y1="41.71" x2="259.71" y2="41.71" gradientUnits="userSpaceOnUse">
      <stop offset="0" stop-color="#44a4dc"/>
      <stop offset="1" stop-color="#3462ac"/>
    </linearGradient>
    <linearGradient id="linear-gradient-2" x1="14.42" x2="259.96" xlink:href="#linear-gradient"/>
    <linearGradient id="linear-gradient-3" x1="66.29" y1="193.55" x2="104.76" y2="193.55" xlink:href="#linear-gradient"/>
    <linearGradient id="linear-gradient-4" x1="66.04" y1="193.55" x2="105.01" y2="193.55" xlink:href="#linear-gradient"/>
    <linearGradient id="linear-gradient-5" x1="66.33" y1="289.83" x2="104.81" y2="289.83" xlink:href="#linear-gradient"/>
    <linearGradient id="linear-gradient-6" x1="66.08" y1="289.83" x2="105.06" y2="289.83" xlink:href="#linear-gradient"/>
    <linearGradient id="linear-gradient-7" x1="66.33" y1="241.69" x2="104.81" y2="241.69" xlink:href="#linear-gradient"/>
    <linearGradient id="linear-gradient-8" x1="66.08" y1="241.69" x2="105.06" y2="241.69" xlink:href="#linear-gradient"/>
    <linearGradient id="linear-gradient-9" x1="118.24" y1="289.83" x2="156.72" y2="289.83" xlink:href="#linear-gradient"/>
    <linearGradient id="linear-gradient-10" x1="117.99" y1="289.83" x2="156.97" y2="289.83" xlink:href="#linear-gradient"/>
    <linearGradient id="linear-gradient-11" x1="118.2" y1="241.69" x2="156.68" y2="241.69" xlink:href="#linear-gradient"/>
    <linearGradient id="linear-gradient-12" x1="117.95" y1="241.69" x2="156.93" y2="241.69" xlink:href="#linear-gradient"/>
    <linearGradient id="linear-gradient-13" x1="118.15" y1="145.4" x2="156.63" y2="145.4" xlink:href="#linear-gradient"/>
    <linearGradient id="linear-gradient-14" x1="117.9" y1="145.4" x2="156.88" y2="145.4" xlink:href="#linear-gradient"/>
    <linearGradient id="linear-gradient-15" x1="118.15" y1="193.55" x2="156.63" y2="193.55" xlink:href="#linear-gradient"/>
    <linearGradient id="linear-gradient-16" x1="117.9" y1="193.55" x2="156.88" y2="193.55" xlink:href="#linear-gradient"/>
    <linearGradient id="linear-gradient-17" x1="66.33" y1="145.4" x2="104.81" y2="145.4" xlink:href="#linear-gradient"/>
    <linearGradient id="linear-gradient-18" x1="66.08" y1="145.4" x2="105.06" y2="145.4" xlink:href="#linear-gradient"/>
    <linearGradient id="linear-gradient-19" x1="169.85" y1="145.4" x2="208.32" y2="145.4" xlink:href="#linear-gradient"/>
    <linearGradient id="linear-gradient-20" x1="169.6" y1="145.4" x2="208.57" y2="145.4" xlink:href="#linear-gradient"/>
    <linearGradient id="linear-gradient-21" x1="169.85" y1="193.55" x2="208.33" y2="193.55" xlink:href="#linear-gradient"/>
    <linearGradient id="linear-gradient-22" x1="169.6" y1="193.55" x2="208.58" y2="193.55" xlink:href="#linear-gradient"/>
    <linearGradient id="linear-gradient-23" x1="169.85" y1="241.69" x2="208.33" y2="241.69" xlink:href="#linear-gradient"/>
    <linearGradient id="linear-gradient-24" x1="169.6" y1="241.69" x2="208.58" y2="241.69" xlink:href="#linear-gradient"/>
    <linearGradient id="linear-gradient-25" x1="169.9" y1="289.83" x2="208.37" y2="289.83" xlink:href="#linear-gradient"/>
    <linearGradient id="linear-gradient-26" x1="169.65" y1="289.83" x2="208.62" y2="289.83" xlink:href="#linear-gradient"/>
    <linearGradient id="linear-gradient-27" x1="221.59" y1="241.69" x2="260.06" y2="241.69" xlink:href="#linear-gradient"/>
    <linearGradient id="linear-gradient-28" x1="221.34" y1="241.69" x2="260.31" y2="241.69" xlink:href="#linear-gradient"/>
    <linearGradient id="linear-gradient-29" x1="221.59" y1="289.83" x2="260.06" y2="289.83" xlink:href="#linear-gradient"/>
    <linearGradient id="linear-gradient-30" x1="221.34" y1="289.83" x2="260.31" y2="289.83" xlink:href="#linear-gradient"/>
    <linearGradient id="linear-gradient-31" x1="221.59" y1="193.55" x2="260.06" y2="193.55" xlink:href="#linear-gradient"/>
    <linearGradient id="linear-gradient-32" x1="221.34" y1="193.55" x2="260.31" y2="193.55" xlink:href="#linear-gradient"/>
    <linearGradient id="linear-gradient-33" x1="221.54" y1="145.4" x2="260.02" y2="145.4" xlink:href="#linear-gradient"/>
    <linearGradient id="linear-gradient-34" x1="221.29" y1="145.4" x2="260.27" y2="145.4" xlink:href="#linear-gradient"/>
    <linearGradient id="linear-gradient-35" x1="118.15" y1="97.26" x2="156.63" y2="97.26" xlink:href="#linear-gradient"/>
    <linearGradient id="linear-gradient-36" x1="117.9" y1="97.26" x2="156.88" y2="97.26" xlink:href="#linear-gradient"/>
    <linearGradient id="linear-gradient-37" x1="66.33" y1="97.26" x2="104.81" y2="97.26" xlink:href="#linear-gradient"/>
    <linearGradient id="linear-gradient-38" x1="66.08" y1="97.26" x2="105.06" y2="97.26" xlink:href="#linear-gradient"/>
    <linearGradient id="linear-gradient-39" x1="169.85" y1="97.26" x2="208.32" y2="97.26" xlink:href="#linear-gradient"/>
    <linearGradient id="linear-gradient-40" x1="169.6" y1="97.26" x2="208.57" y2="97.26" xlink:href="#linear-gradient"/>
    <linearGradient id="linear-gradient-41" x1="221.54" y1="97.26" x2="260.02" y2="97.26" xlink:href="#linear-gradient"/>
    <linearGradient id="linear-gradient-42" x1="221.29" y1="97.26" x2="260.27" y2="97.26" xlink:href="#linear-gradient"/>
    <linearGradient id="linear-gradient-43" x1="14.81" y1="97.26" x2="53.29" y2="97.26" xlink:href="#linear-gradient"/>
    <linearGradient id="linear-gradient-44" x1="14.81" y1="145.4" x2="53.29" y2="145.4" xlink:href="#linear-gradient"/>
    <linearGradient id="linear-gradient-45" x1="14.81" y1="193.55" x2="53.29" y2="193.55" xlink:href="#linear-gradient"/>
    <linearGradient id="linear-gradient-46" x1="14.81" y1="241.69" x2="53.29" y2="241.69" xlink:href="#linear-gradient"/>
    <linearGradient id="linear-gradient-47" x1="14.81" y1="289.83" x2="53.29" y2="289.83" xlink:href="#linear-gradient"/>
    <linearGradient id="linear-gradient-48" x1="70.73" y1="42.06" x2="90.89" y2="42.06" xlink:href="#linear-gradient"/>
    <linearGradient id="linear-gradient-49" x1="98.06" y1="42" x2="107.75" y2="42" gradientUnits="userSpaceOnUse">
      <stop offset="0" stop-color="#fddb02"/>
      <stop offset="1" stop-color="#f39119"/>
    </linearGradient>
    <linearGradient id="linear-gradient-50" x1="114.88" y1="42.29" x2="139.97" y2="42.29" gradientUnits="userSpaceOnUse">
      <stop offset="0" stop-color="#3fab35"/>
      <stop offset="1" stop-color="#098737"/>
    </linearGradient>
    <linearGradient id="linear-gradient-51" x1="146.44" y1="41.93" x2="169.67" y2="41.93" gradientUnits="userSpaceOnUse">
      <stop offset="0" stop-color="#e6312e"/>
      <stop offset="1" stop-color="#d11317"/>
    </linearGradient>
    <linearGradient id="linear-gradient-52" x1="176.47" y1="41.88" x2="202.94" y2="41.88" gradientUnits="userSpaceOnUse">
      <stop offset="0" stop-color="#804694"/>
      <stop offset="1" stop-color="#66358c"/>
    </linearGradient>
  </defs>
  <rect class="cls-1" y="0" width="274.74" height="326.46"/>
  <g>
    <g>
      <path class="cls-22" d="M28.85,17.39H245.53c7.83,0,14.18,6.35,14.18,14.18v34.46H14.67V31.57c0-7.83,6.35-14.18,14.18-14.18Z"/>
      <rect class="cls-4" x="66.29" y="174.31" width="38.48" height="38.48" rx="5.42" ry="5.42"/>
      <rect class="cls-3" x="66.33" y="270.59" width="38.48" height="38.48" rx="5.42" ry="5.42"/>
      <rect class="cls-2" x="66.33" y="222.45" width="38.48" height="38.48" rx="5.42" ry="5.42"/>
      <rect class="cls-21" x="118.24" y="270.59" width="38.48" height="38.48" rx="5.42" ry="5.42"/>
      <rect class="cls-8" x="118.2" y="222.45" width="38.48" height="38.48" rx="5.42" ry="5.42"/>
      <rect class="cls-7" x="118.15" y="126.16" width="38.48" height="38.48" rx="5.42" ry="5.42"/>
      <rect class="cls-5" x="118.15" y="174.31" width="38.48" height="38.48" rx="5.42" ry="5.42"/>
      <rect class="cls-11" x="66.33" y="126.16" width="38.48" height="38.48" rx="5.42" ry="5.42"/>
      <rect class="cls-6" x="169.85" y="126.16" width="38.48" height="38.48" rx="5.42" ry="5.42"/>
      <rect class="cls-9" x="169.85" y="174.31" width="38.48" height="38.48" rx="5.42" ry="5.42"/>
      <rect class="cls-10" x="169.85" y="222.45" width="38.48" height="38.48" rx="5.42" ry="5.42"/>
      <rect class="cls-15" x="169.9" y="270.59" width="38.48" height="38.48" rx="5.42" ry="5.42"/>
      <rect class="cls-12" x="221.59" y="222.45" width="38.48" height="38.48" rx="5.42" ry="5.42"/>
      <rect class="cls-19" x="221.59" y="270.59" width="38.48" height="38.48" rx="5.42" ry="5.42"/>
      <rect class="cls-17" x="221.59" y="174.31" width="38.48" height="38.48" rx="5.42" ry="5.42"/>
      <rect class="cls-18" x="221.54" y="126.16" width="38.48" height="38.48" rx="5.42" ry="5.42"/>
      <rect class="cls-13" x="118.15" y="78.02" width="38.48" height="38.48" rx="5.42" ry="5.42"/>
      <rect class="cls-16" x="66.33" y="78.02" width="38.48" height="38.48" rx="5.42" ry="5.42"/>
      <rect class="cls-14" x="169.85" y="78.02" width="38.48" height="38.48" rx="5.42" ry="5.42"/>
      <rect class="cls-20" x="221.54" y="78.02" width="38.48" height="38.48" rx="5.42" ry="5.42"/>
    </g>
    <g>
      <rect class="cls-26" x="14.81" y="78.02" width="38.48" height="38.48" rx="5.42" ry="5.42"/>
      <path class="cls-1" d="M34.84,96.13l.82-.66c1.43-1.17,3.63-3.98,5.06-4.03,1.02,0,1.89,.97,1.89,2.04,0,2.45-4.24,2.09-6.38,3.22l-.77,.46v.1l.87,.46c2.14,1.12,6.28,1.02,6.28,3.42,0,1.02-.87,1.94-1.89,1.94-1.63,0-3.42-3.11-5-4.14l-.87-.56v1.07c0,1.63,1.12,3.98,1.12,5.57,0,1.17-.87,1.79-1.84,1.79-.92,0-1.89-.61-1.89-1.84,0-1.58,1.07-3.88,1.07-5.51v-1.02l-.05-.05-.87,.56c-.56,.36-1.17,1.02-1.84,1.74-1.07,1.17-2.2,2.45-3.17,2.4-1.02,0-1.89-1.07-1.89-1.99,0-2.35,4.29-2.2,6.33-3.37l.82-.46v-.1l-.71-.46c-2.04-1.12-6.43-.82-6.43-3.17,0-.97,.87-2.09,1.89-2.09,1.43,0,3.68,2.91,5.11,4.03l.77,.61,.05-.05v-.97c0-1.63-1.07-3.98-1.07-5.51,0-1.28,1.02-1.84,1.89-1.84,.97,0,1.84,.56,1.84,1.79,0,1.53-1.12,3.93-1.12,5.57v1.07Z"/>
    </g>
    <g>
      <rect class="cls-29" x="14.81" y="126.16" width="38.48" height="38.48" rx="5.42" ry="5.42"/>
      <path class="cls-1" d="M34.84,144.28l.82-.66c1.43-1.17,3.63-3.98,5.06-4.03,1.02,0,1.89,.97,1.89,2.04,0,2.45-4.24,2.09-6.38,3.22l-.77,.46v.1l.87,.46c2.14,1.12,6.28,1.02,6.28,3.42,0,1.02-.87,1.94-1.89,1.94-1.63,0-3.42-3.11-5-4.14l-.87-.56v1.07c0,1.63,1.12,3.98,1.12,5.57,0,1.17-.87,1.79-1.84,1.79-.92,0-1.89-.61-1.89-1.84,0-1.58,1.07-3.88,1.07-5.51v-1.02l-.05-.05-.87,.56c-.56,.36-1.17,1.02-1.84,1.74-1.07,1.17-2.2,2.45-3.17,2.4-1.02,0-1.89-1.07-1.89-1.99,0-2.35,4.29-2.2,6.33-3.37l.82-.46v-.1l-.71-.46c-2.04-1.12-6.43-.82-6.43-3.17,0-.97,.87-2.09,1.89-2.09,1.43,0,3.68,2.91,5.11,4.03l.77,.61,.05-.05v-.97c0-1.63-1.07-3.98-1.07-5.51,0-1.28,1.02-1.84,1.89-1.84,.97,0,1.84,.56,1.84,1.79,0,1.53-1.12,3.93-1.12,5.57v1.07Z"/>
    </g>
    <g>
      <rect class="cls-27" x="14.81" y="174.31" width="38.48" height="38.48" rx="5.42" ry="5.42"/>
      <path class="cls-1" d="M34.84,192.42l.82-.66c1.43-1.17,3.63-3.98,5.06-4.03,1.02,0,1.89,.97,1.89,2.04,0,2.45-4.24,2.09-6.38,3.22l-.77,.46v.1l.87,.46c2.14,1.12,6.28,1.02,6.28,3.42,0,1.02-.87,1.94-1.89,1.94-1.63,0-3.42-3.11-5-4.14l-.87-.56v1.07c0,1.63,1.12,3.98,1.12,5.57,0,1.17-.87,1.79-1.84,1.79-.92,0-1.89-.61-1.89-1.84,0-1.58,1.07-3.88,1.07-5.51v-1.02l-.05-.05-.87,.56c-.56,.36-1.17,1.02-1.84,1.74-1.07,1.17-2.2,2.45-3.17,2.4-1.02,0-1.89-1.07-1.89-1.99,0-2.35,4.29-2.2,6.33-3.37l.82-.46v-.1l-.71-.46c-2.04-1.12-6.43-.82-6.43-3.17,0-.97,.87-2.09,1.89-2.09,1.43,0,3.68,2.91,5.11,4.03l.77,.61,.05-.05v-.97c0-1.63-1.07-3.98-1.07-5.51,0-1.28,1.02-1.84,1.89-1.84,.97,0,1.84,.56,1.84,1.79,0,1.53-1.12,3.93-1.12,5.57v1.07Z"/>
    </g>
    <g>
      <rect class="cls-28" x="14.81" y="222.45" width="38.48" height="38.48" rx="5.42" ry="5.42"/>
      <path class="cls-1" d="M34.84,240.57l.82-.66c1.43-1.17,3.63-3.98,5.06-4.03,1.02,0,1.89,.97,1.89,2.04,0,2.45-4.24,2.09-6.38,3.22l-.77,.46v.1l.87,.46c2.14,1.12,6.28,1.02,6.28,3.42,0,1.02-.87,1.94-1.89,1.94-1.63,0-3.42-3.11-5-4.14l-.87-.56v1.07c0,1.63,1.12,3.98,1.12,5.57,0,1.17-.87,1.79-1.84,1.79-.92,0-1.89-.61-1.89-1.84,0-1.58,1.07-3.88,1.07-5.51v-1.02l-.05-.05-.87,.56c-.56,.36-1.17,1.02-1.84,1.74-1.07,1.17-2.2,2.45-3.17,2.4-1.02,0-1.89-1.07-1.89-1.99,0-2.35,4.29-2.2,6.33-3.37l.82-.46v-.1l-.71-.46c-2.04-1.12-6.43-.82-6.43-3.17,0-.97,.87-2.09,1.89-2.09,1.43,0,3.68,2.91,5.11,4.03l.77,.61,.05-.05v-.97c0-1.63-1.07-3.98-1.07-5.51,0-1.28,1.02-1.84,1.89-1.84,.97,0,1.84,.56,1.84,1.79,0,1.53-1.12,3.93-1.12,5.57v1.07Z"/>
    </g>
    <g>
      <rect class="cls-31" x="14.81" y="270.59" width="38.48" height="38.48" rx="5.42" ry="5.42"/>
      <path class="cls-1" d="M34.84,288.71l.82-.66c1.43-1.17,3.63-3.98,5.06-4.03,1.02,0,1.89,.97,1.89,2.04,0,2.45-4.24,2.09-6.38,3.22l-.77,.46v.1l.87,.46c2.14,1.12,6.28,1.02,6.28,3.42,0,1.02-.87,1.94-1.89,1.94-1.63,0-3.42-3.11-5-4.14l-.87-.56v1.07c0,1.63,1.12,3.98,1.12,5.57,0,1.17-.87,1.79-1.84,1.79-.92,0-1.89-.61-1.89-1.84,0-1.58,1.07-3.88,1.07-5.51v-1.02l-.05-.05-.87,.56c-.56,.36-1.17,1.02-1.84,1.74-1.07,1.17-2.2,2.45-3.17,2.4-1.02,0-1.89-1.07-1.89-1.99,0-2.35,4.29-2.2,6.33-3.37l.82-.46v-.1l-.71-.46c-2.04-1.12-6.43-.82-6.43-3.17,0-.97,.87-2.09,1.89-2.09,1.43,0,3.68,2.91,5.11,4.03l.77,.61,.05-.05v-.97c0-1.63-1.07-3.98-1.07-5.51,0-1.28,1.02-1.84,1.89-1.84,.97,0,1.84,.56,1.84,1.79,0,1.53-1.12,3.93-1.12,5.57v1.07Z"/>
    </g>
    <g>
      <path class="cls-32" d="M80.69,29.09c.43-.14,.79-.08,1.09,.17,.09,.11,.27,.17,.54,.17,.23,0,.44,.05,.65,.14,.2,.11,.34,.16,.41,.14,.04-.04,.27-.09,.68-.14,.41-.02,.65-.07,.71-.14,.11-.11,.25-.15,.41-.12,.16,.03,.27,.12,.34,.25,.07,.16,.17,.26,.31,.31,.14,.05,.45,.08,.95,.1,.39,.02,.66,.08,.82,.17,.16,.09,.35,.32,.58,.68,.14,.18,.26,.29,.37,.34,.14,.05,.27,.22,.41,.51,.16,.27,.41,.62,.75,1.05,.2,.27,.33,.45,.37,.54,.05,.09,.03,.18-.03,.27-.09,.16-.09,.35,0,.58,.23,.54,.36,.9,.39,1.07,.03,.17,.02,.38-.05,.63-.2,.84-.33,1.59-.37,2.24,0,.07,0,.15-.02,.24-.01,.09-.02,.16-.02,.22v.12c-.02,.09-.14,.18-.34,.27-.14,.09-.23,.17-.27,.24-.05,.07-.07,.22-.07,.44s-.02,.4-.07,.51c-.05,.11-.17,.28-.37,.51-.32,.34-.62,.57-.92,.68-.34,.11-.52,.22-.54,.31,0,.07,.11,.16,.34,.27,.27,.16,.51,.33,.71,.51,.23,.2,.37,.31,.44,.31,.09,0,.22,.1,.39,.31,.17,.2,.24,.35,.22,.44-.02,.14,.07,.31,.27,.51,.2,.23,.32,.42,.34,.58,.04,.16,.1,.25,.17,.27,.07,.02,.08,.07,.03,.14-.05,.07-.01,.18,.1,.34,.11,.18,.2,.45,.27,.82,.09,.39,.15,.93,.19,1.63,.03,.7,.02,1.1-.05,1.19-.09,.09-.15,.24-.17,.46-.02,.22,0,.33,.07,.36,.09,.05,.1,.23,.02,.54-.08,.32-.2,.54-.36,.68-.18,.2-.31,.36-.37,.48-.02,.14-.09,.2-.2,.2s-.16,.03-.14,.1c.04,.05-.07,.26-.34,.63-.27,.37-.48,.59-.61,.66-.09,.07-.14,.15-.14,.24s-.16,.18-.48,.27c-.32,.09-.64,.24-.97,.44-.33,.2-.52,.3-.56,.29s-.28,.02-.71,.08c-1.25,.25-2.29,.36-3.13,.34-.68-.02-1.29,0-1.82,.07-.53,.07-.83,.16-.9,.27-.07,.07-.14,.1-.22,.08-.08-.01-.24-.08-.49-.22-.36-.2-.57-.27-.61-.2-.05,.07-.34,.12-.88,.17-.54,.02-.91-.03-1.09-.17-.16-.11-.27-.17-.34-.17s-.18,.08-.34,.24l-.31,.27-1.36-.14c-1.43-.14-2.39-.11-2.89,.07-.48,.14-.73,.12-.75-.03,.05-.07,.22-.22,.51-.44,.32-.25,.52-.48,.61-.68,.29-.57,.46-1.8,.51-3.71,.04-1.09,.08-1.74,.12-1.95,.03-.21,.14-.36,.32-.42,.2-.09,.26-.18,.17-.27-.05-.02-.12-.02-.24,0-.07,.02-.12,.01-.17-.03s-.08-.14-.1-.27c-.05-.23-.06-.5-.05-.82,.01-.32,.05-.51,.12-.58s.01-.2-.17-.41c-.14-.14-.21-.23-.22-.29-.01-.06,.03-.2,.12-.42,.14-.32,.17-.82,.1-1.5-.07-.84-.07-2.01,0-3.5,.11-3.08,.06-5.14-.17-6.19-.05-.25-.06-.41-.05-.48,.01-.07,.06-.14,.15-.2,.29-.2,.27-.46-.07-.78-.2-.18-.33-.41-.37-.68-.05-.27-.16-.52-.34-.75-.45-.63-.61-.99-.48-1.05,.04-.07,.52-.1,1.41-.08,.9,.01,1.42,.08,1.58,.22,.16,.11,.39,.16,.7,.15,.31-.01,.46-.08,.46-.2s.23-.18,.68-.15c.54,.02,1.17,0,1.87-.07,.66-.04,1.16-.01,1.5,.1,.2,.07,.35,.1,.44,.1s.22-.06,.37-.17c.25-.16,.46-.26,.65-.31Zm2.01,3.67c-.18-.18-.55-.29-1.1-.32s-1.03,.02-1.41,.15c-.63,.25-1.08,.27-1.33,.07-.14-.09-.29-.11-.48-.05-.18,.06-.32,.16-.41,.32-.09,.16-.14,.61-.14,1.36,0,.54,.03,.89,.08,1.04,.06,.15,.18,.21,.36,.19,.23-.05,.25,.15,.07,.58-.25,.7-.31,1.42-.17,2.14,.07,.5,.05,.79-.07,.88-.23,.23-.31,1.16-.24,2.79,.02,1.11,.09,1.72,.2,1.84,.11,.11,.18,.33,.19,.66,.01,.33-.03,.58-.12,.76-.05,.11-.05,.39-.02,.83s.1,.76,.19,.97c.07,.14,.02,.23-.14,.27-.16,.02-.24,.19-.24,.51,0,.54,.15,.9,.44,1.05,.16,.09,.25,.16,.27,.22,.02,.06,.01,.2-.03,.43-.02,.2-.02,.35,.02,.42,.03,.08,.15,.2,.36,.36,.27,.23,.46,.34,.58,.34s.39,.06,.83,.17c.44,.11,1.04,.15,1.78,.1,.32-.02,.57-.04,.75-.05,.18-.01,.33-.03,.46-.05,.12-.02,.2-.06,.24-.1s.04-.09,.02-.14c-.05-.09-.02-.17,.08-.25,.1-.08,.29-.15,.56-.22,.29-.09,.44-.16,.44-.2l.03-.51c.02-.29,.07-.44,.14-.44,.11,0,.24-.6,.37-1.8,.07-.48,.1-.77,.08-.88-.01-.11-.07-.22-.19-.31-.16-.16-.25-.33-.27-.51-.05-.16-.1-.36-.17-.61-.07-.2-.1-.38-.1-.54,0-.14-.09-.29-.27-.46-.18-.17-.27-.29-.27-.36,0-.09-.08-.24-.25-.44-.17-.2-.24-.35-.22-.44,.02-.05,0-.08-.05-.1-.06-.02-.14-.03-.25-.03-.29-.02-.46-.03-.51-.03-.09-.02-.22,.02-.37,.14-.14,.07-.22,.1-.25,.08-.03-.01-.1-.06-.19-.15-.14-.16-.33-.26-.58-.31-.25-.02-.44-.1-.58-.24-.16-.16-.28-.24-.37-.24s-.25-.1-.48-.31c-.25-.2-.44-.32-.58-.34-.09,0-.22-.09-.37-.27-.16-.18-.24-.33-.24-.44,0-.16,.07-.24,.2-.25,.14-.01,.31,.05,.51,.19,.14,.09,.33,.16,.58,.22,.25,.06,.47,.07,.66,.05,.19-.02,.29-.08,.29-.17s.42-.15,1.26-.17c.84-.02,1.33-.1,1.48-.24,.15-.14,.37-.56,.66-1.26,.29-.73,.42-1.27,.37-1.63-.11-.82-.31-1.36-.58-1.63-.16-.16-.23-.35-.2-.58,.02-.23-.15-.59-.53-1.09-.37-.5-.64-.82-.8-.95Z"/>
      <path class="cls-30" d="M103.29,29.32c.14-.07,.23-.1,.29-.08,.06,.01,.23,.08,.53,.22l.51,.27,.88-.2c.61-.14,1.02-.2,1.22-.2,.36,0,.57,.06,.63,.17,.06,.11-.06,.25-.36,.41-.54,.29-.86,.79-.95,1.5-.02,.41-.09,.69-.2,.85-.18,.27-.19,.95-.03,2.04l.14,.88-.31,.27c-.34,.36-.37,.63-.1,.82,.14,.09,.19,.56,.17,1.39-.05,.88-.07,1.36-.07,1.43,0,.02-.01,.09-.03,.2-.02,.11-.05,.25-.07,.42-.02,.17-.05,.33-.07,.49-.09,.63-.08,1.11,.03,1.43,.11,.34,.14,.68,.07,1.02-.05,.34-.02,.67,.07,.99,.09,.32,.12,1.28,.1,2.89-.05,1.54-.02,2.31,.07,2.31h.07c.09-.02,.15-.01,.19,.03,.03,.05,.04,.1,.03,.17-.01,.07-.05,.14-.12,.2-.09,.09-.09,.17,0,.24,.09,.05,.15,.49,.17,1.33,.07,1.68,.46,2.83,1.19,3.47l.41,.31h-1.33c-.91-.02-1.43-.1-1.56-.24-.07-.07-.14-.1-.2-.1s-.2,.06-.41,.17c-.2,.11-.41,.18-.61,.19-.2,.01-.82,0-1.84-.02-.27,0-.79,.02-1.56,.05-.77,.03-1.27,.07-1.5,.12-.18,.02-.32,.03-.41,.02-.09-.01-.14-.05-.15-.12-.01-.07,.02-.15,.1-.25,.08-.1,.2-.23,.36-.39,.36-.36,.62-.78,.78-1.26,.2-.63,.32-1.42,.36-2.36,.03-.94,0-2.37-.08-4.3-.05-.45-.06-.75-.03-.88,.02-.14,.08-.25,.17-.34,.32-.25,.32-.67,0-1.26-.14-.27-.2-.91-.2-1.9,0-1.13,0-1.77,.02-1.92,.01-.15,.02-.38,.02-.7,0-.02-.01-.85-.03-2.48,0-1.52-.05-2.4-.14-2.65-.11-.43-.14-1.17-.07-2.21,.02-.41-.07-.76-.27-1.05-.2-.29-.37-.46-.51-.51-.18-.07-.33-.17-.44-.31-.09-.11-.14-.19-.14-.24s.03-.1,.1-.17c.09-.09,.19-.14,.31-.14s.38,.05,.82,.14c.66,.11,1.45,.14,2.38,.07,.95-.04,1.5-.11,1.63-.2Z"/>
      <path class="cls-25" d="M116.89,28.07c.09-.27,.24-.23,.44,.14,.02,.05,.04,.09,.07,.14,.16,.29,.51,.71,1.05,1.26,.39,.39,.63,.61,.73,.68s.18,.05,.22-.07c.09-.11,.2-.14,.34-.09,.14,.06,.26,.19,.37,.39,.09,.18,.18,.27,.27,.27,.07,0,.18,.08,.34,.24,.11,.14,.57,.49,1.36,1.05,.75,.52,1.31,.99,1.7,1.39,.36,.36,.71,.66,1.05,.88,.84,.52,1.19,.88,1.05,1.09-.07,.14-.07,.29-.02,.46s.14,.25,.25,.25c.18,.02,.58,.29,1.19,.8,.61,.51,1.02,.92,1.22,1.24,.09,.16,.17,.25,.24,.29,.07,.03,.2,.04,.41,.02,.25-.05,.45,0,.61,.12,.16,.12,.45,.48,.88,1.07,.27,.36,.58,.66,.92,.88,.52,.32,1.26,.93,2.21,1.84l.37,.34-.07-1.7c-.02-1.13-.1-1.89-.24-2.28-.09-.27-.14-.44-.14-.49s.05-.12,.14-.19c.14-.11,.2-.53,.2-1.26,.02-.75,.05-1.17,.07-1.26,.04-.11-.01-.2-.17-.27-.18-.07-.29-.27-.32-.61-.03-.34,.03-.65,.19-.92,.16-.29,.19-.46,.1-.51-.09-.07-.17-.34-.24-.82-.09-.7-.2-1.23-.34-1.58-.14-.35-.36-.69-.68-1-.36-.34-.54-.53-.54-.56s.62-.06,1.87-.08c1.36,0,2.3-.01,2.82-.03,.61-.02,.97,.01,1.09,.1,.16,.14,.7,.11,1.63-.07,.29-.07,.43-.06,.41,.03,0,.09-.18,.27-.54,.54-.63,.5-.96,1.09-.99,1.77,0,.32-.03,.52-.1,.61-.05,.09-.08,.45-.1,1.09-.02,.63-.01,.99,.03,1.05,.23,.29,.26,.59,.1,.88-.07,.16-.07,.41,0,.75,.07,.32,.03,.6-.1,.85-.23,.39-.22,.58,.03,.58,.11,0,.18,.09,.19,.26,.01,.17,0,.73-.05,1.68-.05,.93-.08,2.04-.1,3.33,0,.95-.03,1.46-.1,1.53-.2,.2-.2,.39,0,.54,.11,.07,.17,.17,.17,.31s-.06,.2-.17,.2-.15,.08-.1,.24c.05,.14,.01,.39-.1,.75-.25,.82-.22,1.3,.1,1.46,.14,.05,.22,.1,.24,.17s.03,.22,.03,.44c-.05,.34-.1,.63-.17,.88-.09,.23-.15,.61-.17,1.16,.04,1.29,.1,1.95,.17,1.97,.23,0,.36,.05,.39,.14,.03,.09,0,.26-.09,.51-.14,.32-.16,.56-.07,.71,.09,.14,.1,.35,.03,.65-.11,.36-.09,.97,.07,1.84,.02,.2,0,.36-.05,.46-.06,.1-.14,.12-.25,.05-.11-.07-.36-.49-.75-1.26-.7-1.4-1.36-2.44-1.97-3.09-.27-.27-.5-.53-.68-.78-.18-.29-.44-.62-.78-.99-.39-.41-.58-.66-.58-.75s-.07-.18-.2-.27c-.14-.09-.27-.14-.41-.14s-.32-.18-.54-.54c-.18-.34-.44-.67-.78-.99s-.65-.52-.92-.61c-.29-.09-.47-.18-.53-.25-.06-.08-.05-.23,.02-.46,.05-.23,.05-.39,.02-.48-.03-.09-.21-.29-.53-.61-.54-.57-.91-.93-1.09-1.09l-.44-.41-.48,.17c-.2,.09-.33,.14-.39,.14s-.12-.06-.19-.17c-.09-.11-.32-.4-.68-.85-.34-.43-.57-.75-.68-.95-.14-.23-.27-.32-.41-.27-.16,.05-.33-.03-.51-.24-.05-.04-.21-.21-.49-.51-.28-.29-.52-.53-.7-.71-.41-.41-.69-.66-.83-.76-.15-.1-.3-.15-.46-.15h-.34l-.03,.71c-.02,.68-.01,1.38,.03,2.11v2.96c0,1.54,.01,2.52,.03,2.92,.02,.36-.03,.61-.17,.75-.27,.27-.29,.51-.07,.71,.09,.09,.14,.36,.14,.82s.02,.69,.07,.78c.07,.09,.1,.31,.1,.65-.02,.57-.01,.94,.03,1.12,.04,.18,.21,.45,.51,.82,.09,.11,.16,.22,.22,.31,.06,.09,.1,.17,.14,.22,.03,.06,.05,.1,.05,.14s-.01,.05-.03,.05c-.09,.07-.56,.07-1.39,0-1.27-.09-2.01-.14-2.21-.14-.61-.02-.95-.06-1.02-.1-.05-.02-.62-.01-1.73,.03-1.09,.07-1.67,.08-1.73,.03v-.07s.06-.1,.1-.15c.04-.06,.1-.11,.17-.15,.54-.52,.93-.94,1.16-1.26,.23-.32,.38-.66,.48-1.02,.11-.45,.12-.87,.03-1.26-.07-.36-.09-.75-.07-1.16,.02-.39-.01-.6-.1-.65-.09-.02-.14-.1-.14-.22s.09-.16,.27-.12c.09,.02,.16,.03,.22,.02,.06-.01,.08-.05,.08-.1s-.03-.11-.1-.15c-.16-.14-.16-.83,0-2.07,.02-.16,.07-.54,.14-1.16,.02-.54,.09-.93,.2-1.16,.09-.18,.17-.62,.24-1.31,.07-.69,.07-1.16,0-1.41-.07-.25-.15-.42-.24-.53-.09-.1-.16-.23-.2-.39-.09-.25-.02-1.64,.2-4.18,.07-.52,.07-1.03,0-1.53s-.05-.79,.07-.88c.11-.09,.17-.18,.17-.27,0-.11,.08-.27,.24-.48l.24-.27-.44-.41-.44-.37v-.92c0-.59-.06-1.18-.17-1.77-.11-.59-.15-.94-.1-1.05Z"/>
      <path class="cls-23" d="M160.06,28.78c.07-.07,.2-.1,.39-.1s.31,.03,.36,.1c.05,.09,.21,.16,.49,.22,.28,.06,.47,.06,.56,.02,.09-.09,.31-.11,.66-.07,.35,.05,.58,.12,.7,.24,.14,.16,.25,.18,.34,.07,.07-.11,.2-.14,.41-.07,.2,.09,.49,.15,.87,.17,.37,.02,.65,.09,.83,.2,.14,.09,.45,.17,.95,.24,.41,.05,.65,.12,.73,.22,.08,.1,.05,.32-.08,.66-.18,.59-.17,1.03,.03,1.33,.11,.18,.12,.39,.03,.61-.09,.23-.14,.56-.14,.99,0,.45-.05,.7-.14,.75-.09,.02-.21,0-.36-.08-.15-.08-.24-.18-.29-.29-.05-.16-.18-.38-.41-.66-.23-.28-.44-.5-.65-.66-.25-.2-.77-.35-1.56-.44-.95-.11-1.82-.15-2.62-.1-.59,.07-1.02,.1-1.29,.1-.23-.02-.52,.02-.88,.14-.36,.09-.63,.14-.82,.14-.2,0-.54,.15-1.02,.44-.48,.29-.88,.69-1.22,1.19-.61,.95-.97,1.41-1.09,1.36-.07-.02-.02-.25,.14-.68l.24-.61-.31,.17c-.36,.23-.54,.54-.54,.95,0,.14-.15,.35-.44,.65-.27,.27-.41,.48-.41,.61s-.15,.49-.44,1.05c-.29,.57-.43,.87-.39,.9,.03,.03-.03,.29-.19,.77-.16,.48-.23,.85-.2,1.12,.04,.29,.07,.57,.07,.82-.02,.57,.03,.84,.17,.82,.18-.02,.29,.03,.32,.15,.03,.12-.02,.31-.15,.56-.07,.16-.1,.4-.08,.73,.01,.33,.06,.62,.15,.87,.02,.07,.04,.12,.05,.17,.01,.05,0,.08-.02,.1-.05,0,0,.07,.14,.2,.16,.18,.19,.36,.1,.54-.11,.16-.16,.27-.15,.32,.01,.06,.07,.08,.19,.08s.2,.06,.27,.19c.07,.12,.07,.24,0,.36-.05,.09-.05,.16,0,.2,.07,.02,.15,.22,.24,.58,.23,.91,.7,1.67,1.43,2.28,.52,.45,.88,.7,1.07,.73,.19,.03,.38,.15,.56,.36,.16,.18,.34,.25,.54,.2,.18-.02,.33,.03,.44,.17,.14,.16,.41,.33,.82,.51,.43,.16,1,.23,1.7,.2,.72-.04,1.22-.06,1.5-.03,.29,0,.63-.06,1.02-.17,.25-.09,.42-.17,.53-.24,.1-.07,.2-.18,.29-.34,.16-.27,.21-.61,.17-1.02-.16-2.02-.25-3.4-.27-4.15,0-.57-.1-1.05-.31-1.46-.18-.36-.34-.63-.48-.8-.14-.17-.37-.4-.71-.7-.34-.27-.49-.43-.44-.48,.04-.05,.36-.07,.95-.07s.88,.02,.88,.07c0,.07,.46,.1,1.39,.1,.63,0,1.06,.03,1.29,.08s.35,.18,.37,.36c.02,.23,.03,.36,.03,.41l.14-.34c.07-.2,.12-.33,.17-.37,.05-.04,.14-.07,.27-.07,.09,.02,.59,.05,1.5,.07,.82,.02,1.22,.05,1.22,.07,0,.07-.09,.34-.27,.82-.18,.52-.31,1.05-.37,1.6-.02,.27-.1,.85-.24,1.73-.11,.59-.18,1.21-.19,1.85-.01,.65-.03,1.03-.05,1.14-.05,.14-.02,.5,.07,1.1,.09,.6,.17,.98,.24,1.14,.11,.2,.14,.44,.07,.71-.05,.2-.06,.32-.05,.36,.01,.03,.06,.05,.15,.05,.11,0,.18,.04,.2,.12,.02,.08,.02,.27,0,.56,0,.27,.04,.46,.14,.58,.16,.18,.07,.25-.27,.2-.07,0-.16-.01-.27-.03-.39-.09-1.02-.1-1.9-.02-.88,.08-1.41,.19-1.56,.32-.14,.14-.36,.23-.68,.27-.27,.05-.44,.09-.51,.14-.02,.07-.1,.07-.24,0-.14-.07-.17-.19-.1-.37,.11-.27,.11-.49,0-.65-.05-.11-.18-.12-.41-.03-.23,.09-.34,.2-.34,.34,0,.16-.13,.27-.39,.34-.26,.07-.76,.1-1.51,.1-.95,0-1.68-.05-2.18-.14-.45-.09-.84-.15-1.16-.17-.25-.02-.46-.09-.65-.2-.39-.25-1.03-.43-1.94-.54-.36-.05-.59-.11-.68-.2-.11-.09-.29-.16-.54-.2-.18,0-.29-.02-.32-.07-.03-.04-.05-.19-.05-.44,0-.29-.02-.46-.07-.49-.05-.03-.18,0-.41,.08-.18,.07-.39,.03-.63-.1-.24-.14-.75-.56-1.55-1.26-.7-.59-1.22-1.04-1.56-1.36-.54-.45-.82-.86-.82-1.22,0-.14-.07-.2-.2-.2s-.22-.03-.24-.08c-.02-.06,0-.16,.07-.32,.11-.18,.09-.32-.07-.41-.18-.14-.37-.45-.56-.94-.19-.49-.31-.93-.36-1.34-.05-.45-.15-.83-.31-1.12-.16-.29-.22-.57-.17-.82,.02-.23-.03-.63-.17-1.22-.16-.57-.21-.94-.17-1.12,.02-.11,.06-.32,.1-.61,.05-.27,.14-.44,.27-.51,.14-.07,.18-.26,.14-.58-.07-.43-.09-.71-.07-.83s.12-.31,.31-.56c.25-.32,.41-.61,.48-.88,.07-.27,.17-.48,.31-.61,.14-.11,.2-.35,.2-.71,0-.32,.07-.48,.2-.48s.32-.11,.54-.34c.23-.23,.37-.44,.44-.65,.07-.25,.29-.51,.68-.78,.39-.25,.56-.43,.51-.54,0-.02,.04-.07,.12-.15s.19-.16,.32-.25c.32-.18,.69-.5,1.12-.95,.57-.54,1.12-.86,1.67-.95,.23-.05,.52-.2,.88-.46,.36-.26,.63-.35,.82-.25,.11,.05,.18,.06,.2,.05,.02-.01,.03-.06,.03-.15,0-.11,.32-.25,.95-.41s1.02-.22,1.16-.17c.11,.05,.25,.01,.41-.1,.16-.11,.32-.14,.48-.07,.14,.05,.37,.05,.7,0,.33-.04,.54-.11,.63-.2Z"/>
      <path class="cls-24" d="M187.01,29.66l.2-.31,1.39,.07c1,.05,1.7,.03,2.11-.03,.32-.05,.54-.06,.66-.03,.12,.02,.33,.1,.63,.24,.45,.23,.73,.37,.83,.44,.1,.07,.16,.15,.19,.24,.07,.23,.31,.26,.71,.1,.43-.16,.36-.31-.2-.44-.32-.07-.46-.15-.44-.24,0-.04,.11-.07,.34-.07,.34,0,.91,.15,1.72,.44,.8,.29,1.21,.51,1.21,.65,0,.07-.06,.15-.17,.24-.09,.07-.13,.11-.12,.14,.01,.02,.07,.03,.19,.03,.16,0,.5,.16,1.02,.48,.52,.32,.92,.61,1.19,.88,.2,.23,.34,.44,.41,.65,.05,.23,.15,.35,.31,.37,.16,.05,.26,.18,.31,.41,.05,.2,.12,.35,.24,.44,.14,.09,.16,.31,.07,.65-.09,.34-.11,.54-.05,.59,.06,.06,.33,.12,.83,.19,.36,.02,.58,.05,.65,.08,.07,.03,.1,.13,.1,.29,0,.39,.02,.61,.07,.68,.04,.07,.16,.12,.34,.17,.18,.02,.29,.06,.32,.1s.05,.16,.05,.34c0,.25,.13,.8,.39,1.67,.26,.86,.4,1.72,.42,2.58,.05,.82,.03,1.38-.05,1.68-.08,.31-.14,.82-.19,1.55-.05,.61-.12,1.05-.24,1.33-.11,.27-.37,.59-.78,.95-.25,.23-.4,.44-.46,.65-.06,.2-.2,.49-.42,.85-.16,.27-.28,.44-.36,.49-.08,.06-.18,.06-.29,.02-.32-.07-.54-.04-.66,.08s-.26,.46-.39,1c-.07,.27-.22,.49-.44,.65-.23,.16-.66,.36-1.29,.61-.52,.2-1.03,.43-1.51,.68-.49,.25-.73,.41-.73,.48l-.07,.44c-.05,.27-.12,.45-.24,.54-.36,.27-1.12,.5-2.28,.68-.52,.09-.92,.19-1.19,.31-.25,.11-.5,.12-.75,.03-.36-.14-.7-.12-1.02,.03-.27,.14-.66,.2-1.17,.19-.51-.01-.9-.1-1.17-.25-.23-.14-.39-.21-.48-.22-.09-.01-.25,.02-.48,.08l-.51,.14-.41-.48c-.29-.32-.56-.48-.78-.48-.2,0-.33-.03-.37-.1-.05-.09-.23-.11-.56-.07-.33,.05-.54,0-.63-.14-.09-.14-.42-.42-1-.85-.58-.43-.91-.65-1-.65s-.11-.1-.07-.31c.02-.07,.04-.19,.07-.37,0-.07-.26-.17-.78-.31-.36-.11-.61-.21-.73-.29-.12-.08-.31-.27-.56-.56-.73-.91-1.3-2.01-1.73-3.3-.18-.57-.33-.91-.44-1.02-.11-.14-.14-.25-.07-.34,.05-.09,.08-.29,.1-.61,0-.23,.03-.52,.1-.88,.02-.16,.03-.27,.02-.32-.01-.06-.07-.08-.19-.08-.11-.02-.18-.06-.2-.12-.02-.06-.03-.18-.03-.36,.07-.7,.26-1.19,.58-1.46,.18-.16,.28-.28,.29-.36,.01-.08-.04-.23-.15-.46-.09-.14-.13-.24-.12-.32,.01-.08,.07-.24,.19-.49,.16-.32,.32-.51,.48-.58,.18-.09,.23-.17,.14-.24-.11-.16,.21-.66,.99-1.5,.29-.32,.5-.51,.61-.58s.24-.09,.37-.07c.23,.02,.44-.06,.65-.24,.75-.61,1.88-1.01,3.4-1.19,.82-.07,1.22,0,1.22,.2,0,.07,.04,.11,.12,.14,.08,.02,.26,.02,.53,0,.75-.04,1.4,.17,1.97,.65,.57,.48,.88,1.09,.95,1.84,.04,.39,.02,.58-.07,.58-.18,0-.39-.17-.61-.51-.18-.27-.51-.5-.99-.7-.48-.19-.96-.31-1.46-.36-.36-.02-.63-.02-.8,.02s-.42,.12-.76,.25c-.45,.2-.86,.44-1.22,.71-.34,.23-.68,.37-1.02,.44-.39,.02-.58,.06-.58,.1,0,.02,.08,.17,.24,.44,.14,.27,.2,.46,.19,.58-.01,.11-.12,.39-.32,.82-.18,.48-.31,.91-.37,1.29-.16,1.36,.28,2.73,1.33,4.11,.29,.39,.44,.6,.44,.65s.11,.1,.34,.17c.23,.07,.43,.27,.61,.61,.11,.2,.2,.33,.27,.39,.07,.06,.15,.07,.24,.05,.14-.04,.33,.02,.58,.2,.27,.2,.62,.37,1.05,.51,.48,.16,.84,.29,1.09,.41,.25,.14,.54,.2,.88,.2s.74,.12,1.19,.37c.45,.25,.74,.37,.85,.36,.11-.01,.16-.19,.14-.53,0-.11,.07-.19,.2-.24,.14-.05,.26-.03,.37,.03,.09,.09,.19,.1,.31,.03,.09-.11,.21-.12,.37-.03,.16,.09,.48,.03,.95-.17,.86-.36,1.68-.89,2.45-1.6,.2-.16,.41-.28,.61-.37,.41-.23,.78-.8,1.12-1.73,.18-.45,.35-.86,.51-1.22,.14-.32,.2-1,.2-2.04,.02-.93,.06-1.36,.1-1.29,.07,.14,.1,.34,.1,.61,.02,.25,.06,.4,.1,.44,.07,.02,.11,.16,.14,.41l.03,.24,.03-.03c.04-.14-.06-.8-.31-2.01-.07-.39-.11-.69-.14-.92-.05-.29-.19-.69-.44-1.19-.25-.52-.37-.82-.37-.88s-.07-.12-.2-.17c-.11-.05-.2-.13-.25-.25-.06-.12-.06-.23-.02-.32,.07-.11-.04-.37-.32-.78-.28-.41-.55-.7-.8-.88-.39-.27-.91-.61-1.58-1-.67-.4-1.14-.65-1.41-.76-.61-.23-1.49-.4-2.63-.53-1.14-.12-1.95-.12-2.43,.02-.54,.14-.99,.25-1.33,.34-.66,.14-1.25,.34-1.77,.61-.52,.27-.79,.4-.82,.37-.02-.02,0-.15,.07-.37,.04-.16,.06-.25,.05-.27-.01-.02-.07-.02-.19,0-.34,.11-.56,.32-.65,.61-.07,.14-.39,.37-.95,.71-.59,.36-1.11,.74-1.56,1.12-.36,.29-.73,.68-1.1,1.16-.37,.48-.59,.84-.66,1.09-.09,.29-.24,.39-.44,.27-.11-.07-.14-.27-.07-.61,.07-.34,.19-.61,.37-.82,.2-.25,.28-.48,.22-.68-.06-.2,.1-.57,.46-1.09,.34-.5,.69-.96,1.05-1.39,.32-.32,.71-.68,1.17-1.09,.46-.41,.73-.61,.8-.61,.04,0,.16-.1,.34-.31,.18-.23,.38-.36,.61-.41,.23-.04,.35-.11,.37-.2,.04-.09,.17-.14,.39-.14s.35-.06,.39-.17c.02-.09,.27-.25,.75-.49,.48-.24,.85-.39,1.12-.46,.2-.05,.31-.01,.31,.1s.02,.16,.07,.15c.04-.01,.25-.08,.61-.22,.39-.14,.65-.29,.78-.48Zm7.27-.78c.11-.16,.59-.02,1.43,.42,.84,.44,1.6,.93,2.28,1.48,.7,.57,1.39,1.27,2.07,2.12,.68,.85,.99,1.38,.92,1.58-.09,.23-.39,.02-.88-.61-.09-.11-.19-.25-.31-.41-.57-.75-1.05-1.3-1.46-1.67-.84-.75-1.45-1.26-1.84-1.55-.39-.28-.88-.57-1.5-.87-.14-.09-.26-.17-.37-.24-.11-.07-.2-.12-.25-.17-.06-.04-.08-.08-.08-.1Z"/>
    </g>
  </g>
</svg>